<svg width="100" height="49" viewBox="0 0 100 49" fill="none" xmlns="http://www.w3.org/2000/svg">
<g clip-path="url(#clip0)">
<path d="M32.736 29.3468V30.525H33.9332V31.1584H32.736V32.9637H31.8809V28.6943H34.0662V29.3278L32.736 29.3468Z" fill="#73614F"/>
<path d="M36.4352 32.9697L36.3782 32.6467C36.1173 32.8968 35.7705 33.0373 35.4091 33.0394C34.7756 33.0394 34.4272 32.7227 34.4272 32.1336C34.4272 31.5445 34.953 31.0378 36.0615 31.0378H36.2579V30.7971C36.2579 30.474 36.0742 30.3157 35.6688 30.3157C35.3396 30.3255 35.0142 30.3897 34.706 30.5057L34.5983 30.0116C34.9963 29.8301 35.4277 29.7331 35.8651 29.7266C36.6759 29.7266 37.056 30.113 37.056 30.7147V32.9697H36.4352ZM36.2579 31.5382H36.0172C35.3837 31.5382 35.2254 31.7409 35.2254 32.0386C35.2192 32.0956 35.226 32.1532 35.2453 32.2071C35.2645 32.2611 35.2957 32.31 35.3365 32.3502C35.3773 32.3904 35.4267 32.4209 35.481 32.4393C35.5352 32.4577 35.5929 32.4637 35.6498 32.4567C35.8872 32.4466 36.1126 32.3497 36.2832 32.1843L36.2579 31.5382Z" fill="#73614F"/>
<path d="M39.0701 33.0331C38.234 33.0331 37.8032 32.501 37.8032 31.4241C37.8032 30.3473 38.3163 29.7266 39.1271 29.7266C39.305 29.7195 39.4824 29.7515 39.6465 29.8205C39.8107 29.8894 39.9577 29.9936 40.0773 30.1256L39.7922 30.5437C39.6465 30.407 39.4535 30.3321 39.2538 30.3346C38.8864 30.3346 38.652 30.6767 38.652 31.3418C38.652 32.1146 38.8611 32.4186 39.2284 32.4186C39.4805 32.4221 39.7238 32.3266 39.9062 32.1526L40.1533 32.5707C40.0146 32.7186 39.8467 32.8361 39.6603 32.9157C39.4738 32.9953 39.2728 33.0352 39.0701 33.0331V33.0331Z" fill="#73614F"/>
<path d="M43.3206 32.9706H42.5098C42.5098 32.3371 42.5098 31.6657 42.5098 31.311C42.5098 30.5509 42.3578 30.3798 42.0664 30.3798C41.8503 30.4052 41.647 30.4958 41.4837 30.6395V32.9706H40.6855V28.5049H41.5027V30.0948C41.7415 29.8803 42.0495 29.7588 42.3705 29.7527C43.0039 29.7527 43.346 30.1455 43.346 31.1906C43.346 31.5454 43.3206 32.2675 43.3206 32.9706Z" fill="#73614F"/>
<path d="M46.8738 32.9706H46.0631C46.0631 32.3371 46.0631 31.6657 46.0631 31.311C46.0631 30.5509 45.911 30.3798 45.6197 30.3798C45.4035 30.4052 45.2002 30.4958 45.0369 30.6395V32.9706H44.2388V28.5049H45.0559V30.0948C45.2947 29.8803 45.6027 29.7588 45.9237 29.7527C46.5571 29.7527 46.8992 30.1455 46.8992 31.1906C46.8738 31.5454 46.8738 32.2675 46.8738 32.9706Z" fill="#73614F"/>
<path d="M49.0215 33.0394C48.122 33.0394 47.6152 32.5833 47.6152 31.4432C47.6152 30.303 48.2043 29.7266 49.1481 29.7266C50.092 29.7266 50.5544 30.1826 50.5544 31.3228C50.5544 32.463 49.9653 33.0394 49.0215 33.0394ZM49.0848 30.3283C48.7111 30.3283 48.4514 30.588 48.4514 31.3101C48.4514 32.2033 48.6857 32.4377 49.0848 32.4377C49.4839 32.4377 49.7182 32.1779 49.7182 31.4558C49.7182 30.5627 49.4839 30.3283 49.0848 30.3283V30.3283Z" fill="#73614F"/>
<path d="M52.385 33.0331C51.5489 33.0331 51.1182 32.501 51.1182 31.4242C51.1182 30.3473 51.6312 29.7266 52.442 29.7266C52.62 29.7195 52.7973 29.7515 52.9615 29.8205C53.1256 29.8894 53.2727 29.9936 53.3922 30.1256L53.1071 30.5437C52.9614 30.407 52.7685 30.3321 52.5687 30.3346C52.2013 30.3346 51.967 30.6767 51.967 31.3418C51.967 32.1146 52.176 32.4186 52.5434 32.4186C52.791 32.4188 53.0293 32.3235 53.2085 32.1526L53.4555 32.5707C53.3183 32.717 53.1525 32.8336 52.9683 32.9131C52.7842 32.9927 52.5856 33.0335 52.385 33.0331V33.0331Z" fill="#73614F"/>
<path d="M56.6351 32.9706H55.8243C55.8243 32.3371 55.8243 31.6657 55.8243 31.311C55.8243 30.5509 55.6723 30.3798 55.3809 30.3798C55.1648 30.4052 54.9615 30.4958 54.7981 30.6395V32.9706H54V28.5049H54.8171V30.0948C55.0559 29.8803 55.364 29.7588 55.6849 29.7527C56.3184 29.7527 56.6604 30.1455 56.6604 31.1906C56.6604 31.5454 56.6351 32.2675 56.6351 32.9706Z" fill="#73614F"/>
<path d="M58.3075 33.0331C57.9612 33.0335 57.6207 32.944 57.3193 32.7734L57.389 32.349C57.6416 32.4147 57.9009 32.4509 58.1618 32.4567C58.5799 32.4567 58.7382 32.2983 58.7382 32.1083C58.7382 31.9182 58.6369 31.7916 58.1745 31.6269C57.541 31.4115 57.332 31.1518 57.332 30.6894C57.332 30.113 57.7944 29.7266 58.4912 29.7266C58.8018 29.7287 59.1069 29.8093 59.378 29.9609L59.2893 30.4043C59.0827 30.3476 58.8701 30.3157 58.6559 30.3093C58.3265 30.3093 58.1808 30.4613 58.1808 30.6387C58.1808 30.8161 58.2885 30.9238 58.7382 31.0884C59.3717 31.2975 59.5934 31.5952 59.5934 32.0513C59.5997 32.6023 59.1246 33.0331 58.3075 33.0331Z" fill="#73614F"/>
<path d="M61.3733 33.0331C60.5372 33.0331 60.1064 32.501 60.1064 31.4242C60.1064 30.3473 60.6195 29.7266 61.4303 29.7266C61.6083 29.7195 61.7856 29.7515 61.9497 29.8205C62.1139 29.8894 62.261 29.9936 62.3805 30.1256L62.0954 30.5437C61.9497 30.407 61.7567 30.3321 61.557 30.3346C61.1896 30.3346 60.9236 30.6767 60.9236 31.3418C60.9236 32.1146 61.1326 32.4186 61.5 32.4186C61.7498 32.4204 61.9906 32.325 62.1714 32.1526L62.4185 32.5707C62.2842 32.7139 62.1225 32.8287 61.9429 32.9081C61.7633 32.9876 61.5696 33.0301 61.3733 33.0331V33.0331Z" fill="#73614F"/>
<path d="M65.6234 32.9706H64.8126C64.8126 32.3371 64.8126 31.6657 64.8126 31.311C64.8126 30.5509 64.6605 30.3798 64.3692 30.3798C64.153 30.4052 63.9497 30.4958 63.7864 30.6395V32.9706H62.9883V28.5049H63.8054V30.0948C64.0442 29.8803 64.3523 29.7588 64.6732 29.7527C65.3066 29.7527 65.6487 30.1455 65.6487 31.1906C65.6487 31.5454 65.6234 32.2675 65.6234 32.9706Z" fill="#73614F"/>
<path d="M68.5119 32.9703L68.4486 32.6346C68.1925 32.8858 67.8507 33.0306 67.4921 33.04C66.8587 33.04 66.5166 32.6346 66.5166 31.6021C66.5166 31.2094 66.5166 30.4936 66.5166 29.7968H67.3337C67.3337 30.4303 67.3337 31.0637 67.3337 31.4627C67.3337 32.2102 67.4858 32.3876 67.7708 32.3876C67.9889 32.3627 68.1944 32.2721 68.3599 32.1279V29.7715H69.177V32.9386L68.5119 32.9703Z" fill="#73614F"/>
<path d="M70.7228 33.0213C70.3111 33.0213 70.0894 32.8946 70.0894 32.3878V28.5049H70.9445V32.0838C70.9445 32.4385 70.9888 32.4892 71.1535 32.4892H71.3119V32.9706C71.1195 33.0189 70.9206 33.0361 70.7228 33.0213V33.0213Z" fill="#73614F"/>
<path d="M72.528 31.5445V31.5889C72.528 32.1716 72.7814 32.4187 73.2375 32.4187C73.5868 32.4092 73.9327 32.3473 74.2636 32.235L74.384 32.7037C73.9801 32.919 73.5304 33.0342 73.0728 33.0394C72.243 33.0394 71.6919 32.6277 71.6919 31.4685C71.6919 30.3093 72.243 29.7266 73.1298 29.7266C74.0166 29.7266 74.4853 30.1826 74.3967 31.5445H72.528ZM73.6112 31.0251C73.6112 30.5184 73.4402 30.2713 73.0981 30.2713C72.7561 30.2713 72.5534 30.5817 72.528 31.0378H73.6112V31.0251Z" fill="#73614F"/>
<path d="M77.9124 31.5321H77.735V32.97H76.8799V28.6943H78.1467C79.2996 28.6943 79.724 29.2201 79.724 30.0372C79.724 30.8543 79.2172 31.5321 77.9124 31.5321ZM77.9947 29.3088H77.735V30.8987H77.9947C78.1042 30.9152 78.216 30.9062 78.3213 30.8722C78.4267 30.8383 78.5228 30.7804 78.6019 30.703C78.6811 30.6257 78.7413 30.531 78.7777 30.4265C78.8142 30.3219 78.8258 30.2104 78.8118 30.1006C78.7928 29.5875 78.5458 29.3088 77.9757 29.3088H77.9947Z" fill="#73614F"/>
<path d="M81.5102 33.0394C80.6107 33.0394 80.104 32.5833 80.104 31.4432C80.104 30.303 80.6931 29.7266 81.6369 29.7266C82.5807 29.7266 83.0368 30.1826 83.0368 31.3228C83.0368 32.463 82.454 33.0394 81.5102 33.0394ZM81.5736 30.3283C81.1998 30.3283 80.9401 30.588 80.9401 31.3101C80.9401 32.2033 81.1745 32.4377 81.5736 32.4377C81.9726 32.4377 82.207 32.1779 82.207 31.4558C82.207 30.5627 81.9726 30.3283 81.5736 30.3283V30.3283Z" fill="#73614F"/>
<path d="M84.6142 33.0337C84.0314 33.0337 83.8097 32.812 83.8097 32.2039V30.3669H83.4106V29.7715H83.8414C83.9207 29.4667 83.9841 29.158 84.0314 28.8467H84.6268V29.7715H85.33V30.3416H84.6268V31.9758C84.6268 32.2989 84.7029 32.4002 84.9119 32.4002C85.0601 32.3978 85.2073 32.3743 85.349 32.3306L85.4123 32.7993C85.1694 32.9414 84.8954 33.0219 84.6142 33.0337V33.0337Z" fill="#73614F"/>
<path d="M86.7801 33.0331C86.4338 33.0335 86.0934 32.944 85.792 32.7734L85.8617 32.349C86.1142 32.4147 86.3736 32.4509 86.6345 32.4567C87.0525 32.4567 87.2109 32.2983 87.2109 32.1083C87.2109 31.9182 87.1095 31.7916 86.6471 31.6269C86.0137 31.4115 85.8047 31.1518 85.8047 30.6894C85.8047 30.113 86.2671 29.7266 86.9638 29.7266C87.2745 29.7287 87.5795 29.8093 87.8506 29.9609L87.762 30.379C87.5554 30.3222 87.3427 30.2903 87.1285 30.284C86.7992 30.284 86.6535 30.436 86.6535 30.6134C86.6535 30.7907 86.7611 30.8984 87.2109 31.0631C87.8443 31.2721 88.066 31.5699 88.066 32.0259C88.0914 32.6023 87.6163 33.0331 86.7801 33.0331Z" fill="#73614F"/>
<path d="M90.6631 32.9706L90.6061 32.6475C90.3661 32.8828 90.0486 33.0224 89.713 33.0403C88.9719 33.0403 88.5981 32.3625 88.5981 31.5137C88.5981 30.2468 89.2886 29.7274 90.1627 29.7274C90.2894 29.7274 90.4351 29.7274 90.5175 29.7274V28.5049H91.3282V32.9959L90.6631 32.9706ZM90.5175 30.4052C90.3927 30.3642 90.2624 30.3428 90.1311 30.3418C89.7193 30.3418 89.4343 30.6776 89.4343 31.4313C89.4343 32.1851 89.6306 32.4448 89.9537 32.4448C90.1661 32.4216 90.3645 32.3279 90.5175 32.1788V30.4052Z" fill="#73614F"/>
<path d="M94.0583 32.9697L94.0013 32.6467C93.7403 32.8968 93.3935 33.0373 93.0321 33.0394C92.3987 33.0394 92.0503 32.7227 92.0503 32.1336C92.0503 31.5445 92.576 31.0378 93.6845 31.0378H93.8809V30.7971C93.8809 30.474 93.6972 30.3157 93.2918 30.3157C92.9626 30.3255 92.6373 30.3897 92.329 30.5057L92.2213 30.0116C92.6194 29.8301 93.0507 29.7331 93.4882 29.7266C94.2926 29.7266 94.6727 30.113 94.6727 30.7147V32.9697H94.0583ZM93.8809 31.5382H93.6402C93.0068 31.5382 92.8484 31.7409 92.8484 32.0386C92.8423 32.0956 92.849 32.1532 92.8683 32.2071C92.8875 32.2611 92.9187 32.31 92.9596 32.3502C93.0004 32.3904 93.0497 32.4209 93.104 32.4393C93.1582 32.4577 93.2159 32.4637 93.2728 32.4567C93.5102 32.4466 93.7356 32.3497 93.9062 32.1843L93.8809 31.5382Z" fill="#73614F"/>
<path d="M99.9746 32.9707H99.1638C99.1638 32.3373 99.1638 31.7039 99.1638 31.3111C99.1638 30.551 99.0244 30.38 98.7521 30.38C98.5165 30.4072 98.2952 30.5068 98.1186 30.665C98.1462 30.8218 98.1589 30.9809 98.1566 31.1401V32.9707H97.3458V31.3111C97.3458 30.5637 97.2065 30.38 96.9404 30.38C96.7291 30.4089 96.5309 30.4992 96.3703 30.6397V32.9707H95.5532V29.7719H96.2817L96.3387 30.1076C96.589 29.8592 96.9238 29.7145 97.2762 29.7022C97.4347 29.6942 97.592 29.7332 97.7284 29.8143C97.8648 29.8955 97.9741 30.0151 98.0426 30.1583C98.3111 29.8843 98.673 29.7215 99.0561 29.7022C99.6895 29.7022 100.006 30.1076 100.006 31.1338C99.9999 31.5518 99.9746 32.3056 99.9746 32.9707Z" fill="#73614F"/>
<path d="M33.4069 40.0075C32.3934 40.0075 31.874 39.5831 31.874 38.4872V35.6621H32.7292V38.3985C32.7292 39.127 32.9572 39.3804 33.4829 39.3804C34.0087 39.3804 34.2431 39.1587 34.2431 38.4492V35.6621H35.0792V38.3922C35.1038 38.6153 35.0769 38.8411 35.0007 39.0523C34.9245 39.2634 34.8009 39.4542 34.6394 39.6102C34.478 39.7661 34.2829 39.883 34.0693 39.9519C33.8556 40.0208 33.6291 40.0398 33.4069 40.0075Z" fill="#73614F"/>
<path d="M38.6839 39.9375H37.8731C37.8731 39.304 37.8731 38.6706 37.8731 38.2715C37.8731 37.5177 37.7274 37.3467 37.436 37.3467C37.2178 37.3712 37.0122 37.4618 36.847 37.6064V39.9375H36.0488V36.7386H36.7393L36.7963 37.0743C37.0543 36.8222 37.3984 36.6773 37.7591 36.6689C38.3925 36.6689 38.7282 37.0743 38.7282 38.1068C38.7092 38.5249 38.6839 39.2724 38.6839 39.9375Z" fill="#73614F"/>
<path d="M40.0141 36.3527C39.6214 36.3527 39.5264 36.2514 39.5264 35.9283C39.5264 35.6053 39.6277 35.5039 40.0141 35.5039C40.4005 35.5039 40.4955 35.5989 40.4955 35.9283C40.4955 36.2577 40.4005 36.3527 40.0141 36.3527ZM39.6024 39.9379V36.7391H40.4195V39.9063L39.6024 39.9379Z" fill="#73614F"/>
<path d="M42.9661 39.9381H41.9019L40.9961 36.7709H41.8766L42.3896 38.5635L42.5163 39.197C42.7864 38.3991 42.9732 37.5755 43.0738 36.7393H43.9162C43.7448 37.8434 43.4252 38.9194 42.9661 39.9381Z" fill="#73614F"/>
<path d="M45.1257 38.5123V38.5566C45.1257 39.1394 45.3791 39.3864 45.8352 39.3864C46.1887 39.3783 46.539 39.3163 46.874 39.2027L46.9943 39.6715C46.5905 39.8868 46.1408 40.0019 45.6831 40.0072C44.8533 40.0072 44.3022 39.5955 44.3022 38.4363C44.3022 37.2771 44.8533 36.6943 45.7401 36.6943C46.6269 36.6943 47.0957 37.1504 47.007 38.5123H45.1257ZM46.2405 38.0055C46.2405 37.4988 46.0695 37.2518 45.7275 37.2518C45.3854 37.2518 45.1827 37.5621 45.1574 38.0182H46.2405V38.0055Z" fill="#73614F"/>
<path d="M49.4964 37.4866C49.4062 37.4582 49.3123 37.4433 49.2177 37.4422C49.0403 37.4422 48.8883 37.5626 48.5843 37.9236V39.938H47.7861V36.7391H48.4576L48.5209 37.2332C48.844 36.8088 49.0593 36.6758 49.2874 36.6758C49.3927 36.6753 49.4968 36.6991 49.5914 36.7455L49.4964 37.4866Z" fill="#73614F"/>
<path d="M50.9091 40.0009C50.5628 40.0012 50.2223 39.9117 49.9209 39.7412L49.9906 39.3168C50.2431 39.3825 50.5025 39.4186 50.7634 39.4244C51.1814 39.4244 51.3398 39.2661 51.3398 39.076C51.3398 38.886 51.2384 38.7593 50.776 38.5946C50.1426 38.3793 49.9336 38.1196 49.9336 37.6572C49.9336 37.0807 50.396 36.6943 51.0928 36.6943C51.4034 36.6965 51.7084 36.7771 51.9796 36.9287L51.8909 37.3468C51.6843 37.29 51.4716 37.2581 51.2574 37.2518C50.9281 37.2518 50.7824 37.4038 50.7824 37.5811C50.7824 37.7585 50.8901 37.8662 51.3398 38.0309C51.9732 38.2399 52.1949 38.5376 52.1949 38.9937C52.2013 39.5701 51.7262 40.0009 50.9091 40.0009Z" fill="#73614F"/>
<path d="M53.2973 36.3527C52.9046 36.3527 52.8096 36.2514 52.8096 35.9283C52.8096 35.6053 52.9109 35.5039 53.2973 35.5039C53.6837 35.5039 53.7787 35.5989 53.7787 35.9283C53.7787 36.2577 53.6837 36.3527 53.2973 36.3527ZM52.8856 39.9379V36.7391H53.7027V39.9063L52.8856 39.9379Z" fill="#73614F"/>
<path d="M55.4887 40.0014C54.9059 40.0014 54.6842 39.7797 54.6842 39.1716V37.3347H54.2852V36.7393H54.7159C54.7952 36.4345 54.8587 36.1258 54.9059 35.8145H55.5013V36.7393H56.2045V37.3094H55.5013V38.9436C55.5013 39.2667 55.5774 39.368 55.7864 39.368C55.9346 39.3655 56.0818 39.3421 56.2235 39.2983L56.2868 39.7671C56.0439 39.9092 55.7699 39.9897 55.4887 40.0014V40.0014Z" fill="#73614F"/>
<path d="M57.0092 41.0719C56.8405 41.0664 56.6755 41.0208 56.5278 40.9389V40.4702C56.6333 40.4759 56.7391 40.4759 56.8445 40.4702C57.0086 40.4817 57.171 40.432 57.3006 40.3308C57.3591 40.2879 57.4063 40.2316 57.4383 40.1665C57.4703 40.1014 57.4861 40.0296 57.4843 39.9571C57.4694 39.7396 57.4202 39.5258 57.3386 39.3237L56.5658 36.7393H57.44L57.9341 38.5192C58.0232 38.7716 58.0703 39.037 58.0734 39.3047C58.3439 38.4718 58.5202 37.6113 58.5992 36.7393H59.4416C58.9095 40.0774 57.896 41.0719 57.0092 41.0719Z" fill="#73614F"/>
<path d="M62.5136 40.0072C61.6142 40.0072 61.1074 39.5511 61.1074 38.4109C61.1074 37.2708 61.6965 36.6943 62.6403 36.6943C63.5841 36.6943 64.0465 37.1504 64.0465 38.2906C64.0465 39.4308 63.4574 40.0072 62.5136 40.0072ZM62.577 37.2961C62.2033 37.2961 61.9435 37.5558 61.9435 38.2779C61.9435 39.1711 62.1779 39.4054 62.577 39.4054C62.976 39.4054 63.2104 39.1457 63.2104 38.4236C63.2104 37.5305 62.976 37.2961 62.577 37.2961V37.2961Z" fill="#73614F"/>
<path d="M66.3836 36.042C66.2647 35.9944 66.138 35.9686 66.0099 35.966C65.7629 35.966 65.6679 36.0927 65.6679 36.3587V36.7388H66.2379V37.3089H65.6679V39.9123H64.8571V37.3342H64.4517V36.7388H64.8571V36.3587C64.8571 35.7253 65.1041 35.3516 65.7439 35.3516C66.0096 35.3527 66.2709 35.4202 66.504 35.5479L66.3836 36.042Z" fill="#73614F"/>
<path d="M34.0658 46.9056C34.0152 46.6649 33.9455 46.3101 33.8821 46.0631H32.4696C32.4126 46.3038 32.3429 46.6142 32.2922 46.9056H31.4751C31.7918 45.4803 32.2099 44.0044 32.6596 42.6299H33.7808C34.2749 44.0931 34.6486 45.4677 34.9907 46.9056H34.0658ZM33.1537 43.3837C32.9763 44.0171 32.761 44.7772 32.6026 45.4233H33.7428C33.5718 44.7645 33.3627 44.0424 33.1537 43.3837Z" fill="#73614F"/>
<path d="M36.7392 46.9749C36.6274 46.981 36.5153 46.981 36.4035 46.9749V48.0201H35.5547V43.7064H36.1881L36.2515 44.0294C36.4866 43.7946 36.8001 43.6547 37.1319 43.6367C37.8921 43.6367 38.2594 44.3208 38.2594 45.1633C38.2911 46.4428 37.6197 46.9749 36.7392 46.9749ZM36.9672 44.2892C36.7545 44.3109 36.5556 44.4048 36.4035 44.5552V46.3288C36.525 46.3739 36.654 46.3954 36.7835 46.3922C37.1953 46.3922 37.4867 46.0564 37.4867 45.3026C37.455 44.6502 37.2586 44.2892 36.9356 44.2892H36.9672Z" fill="#73614F"/>
<path d="M40.1851 46.9749C40.0733 46.981 39.9612 46.981 39.8494 46.9749V48.0201H39.0322V43.7064H39.6973L39.7607 44.0294C39.9958 43.7946 40.3093 43.6547 40.6411 43.6367C41.4013 43.6367 41.7687 44.3208 41.7687 45.1633C41.7687 46.4428 41.0972 46.9749 40.1851 46.9749ZM40.4131 44.2892C40.2003 44.3109 40.0014 44.4048 39.8494 44.5552V46.3288C39.9709 46.3739 40.0999 46.3954 40.2294 46.3922C40.6411 46.3922 40.9325 46.0564 40.9325 45.3026C40.9325 44.6502 40.7362 44.2892 40.4131 44.2892Z" fill="#73614F"/>
<path d="M43.1368 46.9558C42.7251 46.9558 42.5034 46.8291 42.5034 46.3224V42.4395H43.3269V46.0184C43.3269 46.3731 43.3712 46.4237 43.5359 46.4237H43.7069V46.8735C43.5224 46.9305 43.33 46.9583 43.1368 46.9558Z" fill="#73614F"/>
<path d="M44.7583 43.3205C44.3655 43.3205 44.2705 43.2191 44.2705 42.8961C44.2705 42.573 44.3719 42.4717 44.7583 42.4717C45.1446 42.4717 45.2397 42.5667 45.2397 42.8961C45.2397 43.2255 45.1446 43.3205 44.7583 43.3205ZM44.3402 46.9057V43.7069H45.1636V46.874L44.3402 46.9057Z" fill="#73614F"/>
<path d="M46.7409 45.4801V45.5244C46.7409 46.1072 46.9943 46.3542 47.4504 46.3542C47.7997 46.3448 48.1456 46.2828 48.4765 46.1705L48.5969 46.6392C48.193 46.8546 47.7433 46.9697 47.2857 46.975C46.4559 46.975 45.9048 46.5632 45.9048 45.404C45.9048 44.2449 46.4559 43.6621 47.3427 43.6621C48.2295 43.6621 48.6982 44.1182 48.6095 45.4801H46.7409ZM47.8241 44.9733C47.8241 44.4666 47.6531 44.2195 47.311 44.2195C46.969 44.2195 46.7663 44.5299 46.7409 44.986H47.8241V44.9733Z" fill="#73614F"/>
<path d="M51.3081 46.9052L51.2448 46.5821C51.0048 46.8173 50.6872 46.957 50.3517 46.9748C49.6105 46.9748 49.2368 46.2971 49.2368 45.4483C49.2368 44.1814 49.9273 43.662 50.8014 43.662C50.9281 43.662 51.0738 43.662 51.1561 43.662V42.4395H51.9416V46.9305L51.3081 46.9052ZM51.1434 44.3398C51.0187 44.2987 50.8884 44.2774 50.7571 44.2764C50.3453 44.2764 50.0603 44.6121 50.0603 45.3659C50.0603 46.1197 50.2566 46.3794 50.5797 46.3794C50.792 46.3562 50.9905 46.2625 51.1434 46.1134V44.3398Z" fill="#73614F"/>
<path d="M55.5901 46.9689C55.1369 46.9627 54.6959 46.8215 54.3232 46.5635L54.5259 46.1138C54.8184 46.2436 55.1315 46.3208 55.4508 46.3418C55.8878 46.3418 56.1602 46.1518 56.1602 45.7907C56.1602 44.9546 54.3739 45.1193 54.3739 43.7764C54.3755 43.6042 54.4132 43.4342 54.4847 43.2776C54.5561 43.1209 54.6597 42.981 54.7887 42.8669C54.9177 42.7528 55.0692 42.6671 55.2335 42.6154C55.3977 42.5636 55.571 42.547 55.7421 42.5665C56.1507 42.5645 56.5503 42.6859 56.8887 42.9149L56.686 43.3583C56.4367 43.2542 56.1705 43.1962 55.9005 43.1873C55.4761 43.1873 55.2671 43.39 55.2671 43.675C55.2671 44.5112 57.0977 44.3718 57.0977 45.6893C57.0914 46.4115 56.5593 46.9689 55.5901 46.9689Z" fill="#73614F"/>
<path d="M58.9094 46.9686C58.0733 46.9686 57.6426 46.4365 57.6426 45.3597C57.6426 44.2829 58.1557 43.6621 58.9664 43.6621C59.1444 43.655 59.3217 43.6871 59.4859 43.756C59.6501 43.825 59.7971 43.9291 59.9166 44.0612L59.6316 44.4792C59.4858 44.3426 59.2929 44.2677 59.0931 44.2702C58.7257 44.2702 58.4597 44.6122 58.4597 45.2774C58.4597 46.0501 58.6687 46.3542 59.0361 46.3542C59.286 46.356 59.5268 46.2606 59.7076 46.0881L59.9546 46.5062C59.8203 46.6495 59.6586 46.7642 59.479 46.8437C59.2995 46.9231 59.1058 46.9656 58.9094 46.9686V46.9686Z" fill="#73614F"/>
<path d="M60.9804 43.3205C60.5877 43.3205 60.4927 43.2191 60.4927 42.8961C60.4927 42.573 60.594 42.4717 60.9804 42.4717C61.3668 42.4717 61.4618 42.5667 61.4618 42.8961C61.4618 43.2255 61.3668 43.3205 60.9804 43.3205ZM60.5687 46.9057V43.7069H61.3858V46.874L60.5687 46.9057Z" fill="#73614F"/>
<path d="M62.9631 45.4801V45.5244C62.9631 46.1072 63.2165 46.3542 63.6725 46.3542C64.0219 46.3448 64.3678 46.2828 64.6987 46.1705L64.819 46.6392C64.4152 46.8546 63.9655 46.9697 63.5078 46.975C62.678 46.975 62.127 46.5632 62.127 45.404C62.127 44.2449 62.678 43.6621 63.5648 43.6621C64.4516 43.6621 64.9204 44.1182 64.8317 45.4801H62.9631ZM64.0463 44.9606C64.0463 44.4539 63.8752 44.2069 63.5332 44.2069C63.1911 44.2069 62.9884 44.5172 62.9631 44.9733H64.0463V44.9606Z" fill="#73614F"/>
<path d="M68.2586 46.9052H67.4478C67.4478 46.2718 67.4478 45.6384 67.4478 45.2393C67.4478 44.4855 67.3021 44.3145 67.0108 44.3145C66.7925 44.339 66.5869 44.4296 66.4217 44.5742V46.9052H65.6235V43.7064H66.295L66.352 44.0421C66.61 43.79 66.9541 43.6451 67.3148 43.6367C67.9482 43.6367 68.284 44.0421 68.284 45.0746C68.284 45.4927 68.2586 46.2401 68.2586 46.9052Z" fill="#73614F"/>
<path d="M70.2669 46.9686C69.4307 46.9686 69 46.4365 69 45.3597C69 44.2829 69.5131 43.6621 70.3239 43.6621C70.5018 43.655 70.6791 43.6871 70.8433 43.756C71.0075 43.825 71.1545 43.9291 71.274 44.0612L70.989 44.4792C70.8433 44.3426 70.6503 44.2677 70.4506 44.2702C70.0832 44.2702 69.8171 44.6122 69.8171 45.2774C69.8171 46.0501 70.0262 46.3542 70.3936 46.3542C70.6434 46.356 70.8842 46.2606 71.065 46.0881L71.312 46.5062C71.1778 46.6495 71.016 46.7642 70.8365 46.8437C70.6569 46.9231 70.4632 46.9656 70.2669 46.9686V46.9686Z" fill="#73614F"/>
<path d="M72.509 45.4801V45.5244C72.509 46.1072 72.7624 46.3542 73.2184 46.3542C73.5678 46.3448 73.9137 46.2828 74.2446 46.1705L74.3649 46.6392C73.9611 46.8546 73.5114 46.9697 73.0537 46.975C72.2239 46.975 71.6729 46.5632 71.6729 45.404C71.6729 44.2449 72.2239 43.6621 73.1107 43.6621C73.9976 43.6621 74.4663 44.1182 74.3776 45.4801H72.509ZM73.5922 44.9606C73.5922 44.4539 73.4211 44.2069 73.0791 44.2069C72.737 44.2069 72.5343 44.5172 72.509 44.9733H73.5922V44.9606Z" fill="#73614F"/>
<path d="M75.9232 46.9686C75.5769 46.969 75.2364 46.8795 74.9351 46.7089L75.0047 46.2845C75.2573 46.3503 75.5166 46.3864 75.7775 46.3922C76.1956 46.3922 76.3539 46.2338 76.3539 46.0438C76.3539 45.8538 76.2526 45.7271 75.7902 45.5624C75.1568 45.347 74.9477 45.0873 74.9477 44.6249C74.9477 44.0485 75.4101 43.6621 76.1069 43.6621C76.4175 43.6643 76.7226 43.7449 76.9937 43.8965L76.905 44.3145C76.6984 44.2578 76.4858 44.2259 76.2716 44.2195C75.9422 44.2195 75.7965 44.3716 75.7965 44.5489C75.7965 44.7263 75.9042 44.834 76.3539 44.9987C76.9874 45.2077 77.2091 45.5054 77.2091 45.9615C77.2154 46.5379 76.7403 46.9686 75.9232 46.9686Z" fill="#73614F"/>
<path d="M37.0365 16.0636C37.0365 18.401 36.4981 20.1493 34.3888 21.8025L32.0957 19.8642C32.6088 19.4614 33.0216 18.9453 33.3018 18.3562C33.5821 17.7672 33.7221 17.1212 33.711 16.469H31.874V11.2686H37.0365V16.0636Z" fill="#73614F"/>
<path d="M37.0307 2.59082H31.9062V7.80397H37.0307V2.59082Z" fill="#73614F"/>
<path d="M0 16.4819V0H12.3963V3.92095H4.97245V6.81573H11.8389V10.7367H4.97245V16.4819H0Z" fill="#73614F"/>
<path d="M23.9504 16.4692V10.0399H19.1427V16.4692H14.0752V0H19.1427V5.78957H23.9504V0H29.0622V16.4692H23.9504Z" fill="#73614F"/>
<path d="M39.938 16.4692V0H46.9881C50.2376 0 51.6375 0.348388 52.613 1.00082C54.0635 1.96364 54.7667 3.53455 54.7667 5.58054C54.805 6.44987 54.6367 7.31589 54.2755 8.10757C53.9143 8.89926 53.3706 9.59404 52.689 10.1349C51.5425 10.9267 50.0412 11.3258 47.5075 11.3258H44.9738V16.4692H39.938ZM46.9058 7.4555C47.638 7.52686 48.374 7.36502 49.0088 6.9931C49.1881 6.83126 49.3286 6.63097 49.4196 6.4072C49.5107 6.18344 49.5499 5.94198 49.5345 5.70089C49.5498 5.45908 49.5118 5.21686 49.4231 4.99137C49.3345 4.76588 49.1973 4.56264 49.0214 4.39602C48.6477 4.04763 48.0396 3.92728 46.9881 3.92728H44.9738V7.47451L46.9058 7.4555Z" fill="#73614F"/>
</g>
<defs>
<clipPath id="clip0">
<rect width="100" height="48.0015" fill="white"/>
</clipPath>
</defs>
</svg>
