<svg width="90" height="90" viewBox="0 0 90 90" fill="none" xmlns="http://www.w3.org/2000/svg">
<path fill-rule="evenodd" clip-rule="evenodd" d="M38.5816 34.3231L38.5088 34.3951L38.6395 34.4383L39.3325 34.6135L40.0371 35.1279L40.3998 35.5625L40.7638 35.8119C40.7638 35.8119 40.9908 35.6469 40.8155 35.4501L40.5979 35.1918L40.1746 34.6845L39.9056 34.5299L39.5748 34.406L39.202 34.3334L38.8299 34.3022L38.5818 34.3231H38.5816ZM38.9051 37.1322C38.9051 37.1322 38.8647 37.1538 38.8215 37.1457C38.7784 37.1376 38.7568 37.116 38.7784 37.0702L38.8323 36.9732L38.9509 36.8977L39.0803 36.8329L39.2205 36.7898L39.3499 36.7251L39.598 36.6281L39.8137 36.5526L39.9538 36.4878L40.1156 36.4447L40.2882 36.4016L40.3421 36.3477L40.3528 36.2614L40.3421 36.2075L40.2774 36.1536L40.1911 36.132C40.1911 36.132 40.1049 36.1212 40.0509 36.132C39.997 36.1427 39.9323 36.1859 39.8999 36.1859C39.8676 36.1859 39.695 36.2938 39.695 36.2938L39.4578 36.4124L39.2744 36.4878L39.1019 36.5526L38.897 36.5849C38.897 36.5849 38.7568 36.5849 38.7245 36.5957C38.6921 36.6065 38.5115 36.5741 38.5196 36.5741C38.5196 36.5741 38.4063 36.5769 38.347 36.531C38.3281 36.5167 38.3667 36.4151 38.364 36.4339C38.364 36.4339 38.4449 36.3962 38.4826 36.4016C38.4826 36.4016 38.5716 36.3935 38.5905 36.4016L38.6767 36.3908H38.9894L39.1836 36.3477C39.1836 36.3477 39.2259 36.318 39.2448 36.2479L39.2744 36.0996L39.2421 35.9163L39.1774 35.83L39.0696 35.7545L38.897 35.6467C38.897 35.6467 38.7999 35.5928 38.7784 35.5928C38.7568 35.5928 38.6166 35.5388 38.6166 35.5388L38.4764 35.5497C38.4764 35.5497 38.0977 35.5623 38.0146 35.6934L37.9219 35.7101L37.952 35.3739L38.0235 35.138L38.223 35.1237L38.5196 35.183L38.6705 35.2369L38.8108 35.3124L39.0156 35.3879L39.1559 35.4634L39.296 35.5173L39.5117 35.5065L39.6087 35.4742L39.6304 35.3879L39.5872 35.2692L39.4793 35.1398L39.2637 34.9781L39.0372 34.8486L38.9402 34.7732L38.8323 34.7085L38.7029 34.6761L38.5303 34.6438H38.3363C38.3363 34.6438 38.1583 34.6546 38.1475 34.6438C38.1367 34.633 38.0585 34.5871 38.0666 34.5575L38.0451 34.385L38.0397 34.2725L38.1691 34.1755L38.3093 34.1105L38.5681 34.0781H39.2693L39.4526 34.0892L39.7114 34.1324L39.8948 34.2075L40.1968 34.3481L40.3477 34.4664L40.6282 34.7902L40.8654 35.0595L41.081 35.3615L41.3506 35.6742L41.6094 36.0193C41.6094 36.0193 41.6742 36.087 41.7173 36.1487C41.7362 36.1757 41.7578 36.2946 41.7497 36.3212L41.7281 36.5049C41.7281 36.5049 41.6526 36.6065 41.5178 36.6254L41.2806 36.6281H40.6012C40.5688 36.6281 40.3639 36.6496 40.31 36.6604L40.1159 36.7035L39.9217 36.7898L39.76 36.8545L39.4904 36.9516L39.1993 37.0486L38.9054 37.1322" fill="#73614F"/>
<path d="M60.1984 62.158C60.354 61.9577 60.3804 61.4161 62.2476 61.276C62.6735 61.276 62.8857 61.8241 62.5778 61.8322C62.4417 61.8363 62.3209 61.8214 62.3209 61.8214C61.9254 61.8322 62.023 62.0541 62.023 62.0541C62.023 62.0541 62.1605 62.3938 62.7684 62.3471C62.8218 62.3426 63.0569 62.3355 63.1149 62.3201C63.9679 62.0945 63.326 61.4685 63.326 61.4685C63.1386 61.255 62.6358 61.1223 62.6358 61.1223L62.4255 61.0757L62.0763 61.042L61.4371 61.1223C60.4177 61.3353 60.0063 61.2604 60.0063 61.2604L60.1986 62.1576" fill="#73614F"/>
<path d="M58.9492 59.4529L59.3967 59.6586C59.3967 59.6586 60.2836 60.3272 61.2919 60.1681C61.3445 60.1593 63.1326 59.9955 63.8663 60.7828C63.8663 60.6157 63.8811 60.2935 63.8466 60.2215C63.5873 59.6747 62.4055 59.6801 62.4055 59.6801C61.0851 60.0064 60.1355 59.5553 60.1355 59.5553C60.1355 59.5553 59.3901 58.9967 59.3369 58.9697C59.2838 58.9433 58.7607 58.7734 58.7607 58.7734L58.9487 59.4529" fill="#73614F"/>
<path fill-rule="evenodd" clip-rule="evenodd" d="M64.6018 60.2879L63.9574 59.2671C63.6325 58.8942 62.7593 58.868 62.7593 58.868L62.2268 58.8411C62.2268 58.8411 61.402 58.9152 61.3219 58.9206C60.4509 58.9821 59.4743 58.602 59.4743 58.602L59.1548 58.4955C59.1548 58.4955 59.0483 58.0849 59.0483 58.0309C59.0483 57.9784 59.0748 57.6055 59.0748 57.6055C59.2411 58.1959 59.8202 58.1644 59.8202 58.1644C60.0035 58.2148 60.0862 58.1379 60.0862 58.1379L61.029 58.1914L62.3866 58.1379C62.3866 58.1379 62.9533 58.1892 63.0068 58.1914C64.0765 58.2345 64.4099 59.3736 64.4099 59.3736L64.6013 60.2881" fill="#73614F"/>
<path d="M64.6222 56.9062L64.2224 56.3746L63.8768 56.0813L63.5039 55.8149L63.1313 55.6019L62.7854 55.3889L62.3325 55.1498L61.6935 54.8033L61.1349 54.4838L60.6555 54.1113L60.2714 53.8718L60.0591 53.6324L60.0322 53.1534L60.0853 52.5562L60.2452 52.1041L60.3517 51.7043L60.4318 51.2783L60.496 50.8793L60.4695 50.5859L60.4318 50.2139L60.3517 49.8143L60.6617 49.5986L60.8685 49.9478L60.9489 50.2403L60.975 50.5859L60.9489 50.9323L60.9219 51.3848L60.8415 51.7573L60.709 52.1833L60.576 52.5028L60.4695 52.8603L60.4048 53.2599L60.4695 53.6055L60.8154 53.8718L61.2683 54.0048L61.9335 54.2978L62.5193 54.4838L62.9979 54.6704L63.4243 54.9368L63.7964 55.2029L64.1693 55.4693L64.5952 55.8421L64.9948 56.2943L64.9147 56.5342L64.6222 56.9062" fill="#73614F"/>
<path d="M65.2986 55.3189C64.9905 54.7344 64.0204 54.6797 64.0204 54.6797C63.9263 54.6544 63.8608 54.547 63.8608 54.547C63.8608 54.547 63.8838 54.4783 63.9673 54.4667C64.3833 54.4096 65.2449 54.7959 65.2449 54.7959L65.3249 54.9995L65.2988 55.3189" fill="#73614F"/>
<path d="M61.0818 50.2115C61.0818 50.2115 61.634 50.7151 61.7208 51.0901C61.6852 51.1939 61.1352 52.5809 61.1352 52.5809C60.9276 53.3988 61.1047 53.7715 61.6852 53.6535L64.8614 53.843L64.5688 52.9651C64.5378 52.988 64.3837 53.1503 64.1483 53.1279C60.9666 53.7564 61.7472 52.448 61.7472 52.448C61.7706 52.6658 62.2001 51.2498 62.2001 51.2498C62.3349 50.8859 61.9337 50.3981 61.9337 50.3981C61.9076 50.2879 61.0896 49.376 61.0896 49.376L60.709 49.5997C60.709 49.5997 61.0087 50.0702 61.0815 50.2123" fill="#73614F"/>
<path d="M62.5864 52.6751C62.8924 52.2654 63.096 51.9725 63.1984 51.7972C63.6042 50.9027 62.5333 50.4658 62.5333 50.4658C62.3896 50.3723 61.8943 50.3863 61.8943 50.3863L61.3349 50.0668C61.3988 50.1472 61.0693 49.8008 61.0693 49.8008C61.0693 49.8008 62.4407 49.91 62.8003 50.0475C63.8694 50.7908 64.0461 51.4761 63.2789 52.2229L63.0125 52.7398L62.8003 53.4006L62.338 53.3828L62.5866 52.6753" fill="#73614F"/>
<path d="M62.9727 58.1066V57.8936L63.1061 57.2277L63.1856 56.7492L63.2126 56.5623V56.4297L63.3455 56.5362L63.4256 56.7492L63.4781 56.9613V57.1212L63.452 57.2808L63.3455 57.5741C63.3455 57.5741 63.2045 57.7257 63.2921 58.16C63.3015 58.205 63.3725 58.3574 63.3725 58.3574L63.1856 58.3838C63.1856 58.3838 63.0792 58.3304 63.053 58.2773C63.026 58.2239 62.9727 58.16 62.9727 58.1066" fill="#73614F"/>
<path fill-rule="evenodd" clip-rule="evenodd" d="M62.3307 58.4108L62.198 58.3043L62.0645 58.1069L62.0112 57.9735V57.8409L62.0645 57.681L62.1177 57.4149L62.198 57.0954L62.2242 56.7226L62.171 56.4562L61.985 56.1367L61.772 55.9509L61.5057 55.7107L61.1067 55.4977L60.6537 55.2848L60.403 55.1521L60.004 54.9391L59.4979 54.5662L59.2316 54.3002L59.0455 54.0071L58.939 53.6348L58.9121 53.2352L58.9924 52.9157L59.1251 52.5855L59.2585 52.2921L59.365 52.053L59.3914 51.5205L59.4184 51.3337L59.3381 50.9611L59.2849 50.7217L59.2316 50.5621C59.2316 50.5621 59.1008 50.1221 59.1803 50.0423C59.2607 49.9622 59.6657 49.8846 59.6198 49.8854C59.3299 49.8468 60.1665 49.9644 60.004 50.0827C60.0539 50.1636 60.0304 50.4286 60.0304 50.4286V50.7481L59.9501 51.0946L59.8705 51.3871L59.791 51.7335L59.7109 51.9999L59.6044 52.2921L59.5249 52.5586L59.4715 52.7829L59.365 53.1821L59.3381 53.5547L59.4446 53.9542L59.6314 54.2732L59.8705 54.5132L60.1631 54.6461L60.6006 54.8857L61.0527 55.0718C61.0527 55.0718 61.2927 55.1783 61.3722 55.2316C61.4525 55.2848 61.9047 55.4716 61.9047 55.4716L62.1177 55.6576L62.3577 55.9509L62.5437 56.1901L62.5967 56.5096L62.5706 57.0681L62.4641 57.5745V58.0266L62.5175 58.3043L62.4641 58.4642L62.3307 58.4108" fill="#73614F"/>
<path d="M57.134 50.7219V50.9883L57.0805 51.6534L56.5753 53.2091C56.4715 53.7667 56.5247 54.2015 56.735 54.5135L57.1873 55.312L57.347 55.6045C57.347 55.6045 57.723 56.7806 57.2143 57.0684C56.4427 57.9381 56.2025 56.9358 56.2025 56.9358L55.8296 56.2173L55.5905 55.4188C55.5433 55.2174 55.1105 54.6464 55.1105 54.6464L54.8868 54.38L54.6738 54.194L54.3813 53.8476L54.1413 53.6615L53.9818 53.555C53.9818 53.555 53.8219 53.4755 53.7688 53.4755C53.7154 53.4755 53.5558 53.5286 53.5558 53.5286C53.5558 53.5286 53.4228 53.6615 53.4493 53.7147C53.4763 53.768 53.5558 53.9546 53.5558 53.9546L53.7423 54.0605L54.1152 54.2471L54.4077 54.4865L54.7534 54.9125L55.0049 55.2851L55.2974 56.0305L55.457 56.5903L55.6964 57.0958L56.0523 57.6746C56.4222 58.1321 57.1566 57.8485 57.2097 57.8485C57.2632 57.8485 57.5066 57.6544 57.5066 57.6544C57.5066 57.6544 57.7471 57.725 57.8005 57.6185C57.8544 57.512 57.9056 56.909 57.9056 56.909L57.9326 56.4566L57.9056 56.1371C57.9204 55.9519 57.7196 55.4186 57.7196 55.4186L57.1076 54.3799C56.8048 53.6924 57.1076 52.9429 57.1076 52.9429L57.5066 51.9201L57.6401 51.521L57.7996 50.8288V50.6422C57.6568 50.2734 57.2672 50.4562 57.2141 50.4826C57.1607 50.5093 57.1338 50.7223 57.1338 50.7223" fill="#73614F"/>
<path fill-rule="evenodd" clip-rule="evenodd" d="M57.8242 57.5067L57.7438 57.7731L57.6382 57.9861L57.5047 58.1456L57.3448 58.3163L57.0523 58.5563C56.2807 58.9553 55.7472 58.6628 55.7472 58.6628C55.7817 58.6965 55.3212 58.3433 55.3212 58.3433L54.2991 56.8408L53.9001 56.2291L53.2611 55.5106C52.3501 54.8183 51.9035 55.6702 51.9035 55.6702L51.77 55.8832L52.2761 54.7119C52.9617 54.7995 53.7662 55.3508 53.7662 55.3508L55.375 57.7996L55.8004 58.3164C56.4259 58.5038 56.7052 58.1722 56.7052 58.1722C56.7052 58.1722 56.8166 58.0706 56.9182 57.9592C57.0153 57.8532 57.2911 57.7996 57.2911 57.7996C57.2911 57.7996 57.4507 57.6667 57.5041 57.6397C57.5572 57.6133 57.8236 57.5068 57.8236 57.5068" fill="#73614F"/>
<path d="M55.6981 50.1702L55.7062 50.5557C55.8747 50.7485 55.8245 50.8828 55.8245 50.8828C55.8504 50.885 55.665 51.0688 55.665 51.0688L55.3988 51.3619L55.1595 51.7881L54.9998 52.1869L54.9465 52.5598C54.9222 53.1375 55.2889 53.896 55.2889 53.896L55.7696 54.6345C56.1125 55.2936 55.9812 55.9009 55.9812 55.9009L55.8779 56.3781L56.1443 56.9098L56.24 57.0823C56.24 57.0823 56.3039 56.8033 56.3304 56.7507C56.3573 56.6968 56.4045 55.6512 56.4045 55.6512C56.4422 55.2746 56.2769 54.754 56.2769 54.754C55.5571 53.698 55.4253 53.21 55.4253 53.21C55.264 52.6326 55.3223 52.3232 55.5056 52.1078L55.8782 51.6015L56.0912 51.3351L56.3306 51.1221C56.3306 51.1221 56.4107 51.0426 56.4902 50.9361C56.5705 50.8296 56.6501 50.7231 56.6501 50.7231L56.7032 50.5635C56.7032 50.5635 56.677 50.3506 56.5436 50.2971C56.4107 50.2441 56.2772 50.1376 56.2772 50.1376L55.9713 49.9941L55.6984 50.1704" fill="#73614F"/>
<path fill-rule="evenodd" clip-rule="evenodd" d="M55.4287 59.7355C55.4503 59.7355 55.2543 59.6978 55.2543 59.6978L54.9259 59.7097C54.5579 59.5613 54.2789 59.688 54.2789 59.688L53.6103 60.2057L53.2221 60.5292L52.9633 60.8096C52.7551 61.0387 52.5852 60.9215 52.5852 60.9215L52.1221 60.5939L52.2731 60.5292L52.5763 60.512L53.2727 60.0412L53.9338 59.4077L54.0848 59.2783C54.0964 58.5488 53.5672 58.739 53.5672 58.739L53.4378 58.8469L53.3083 59.0626C53.3083 59.0626 53.1789 59.1489 53.0927 59.0841C53.0058 59.0195 52.9848 58.8901 52.9848 58.8901C52.9848 58.8901 53.0846 58.601 53.3482 58.4406C53.6494 58.3279 53.8907 58.3293 53.8907 58.3293L53.8691 58.1567C53.696 57.7329 53.0519 57.683 53.0519 57.683C52.0719 57.7234 52.1223 58.3077 52.1223 58.3077L52.0395 58.5773L51.6963 57.5606L52.1439 57.5746C52.1439 57.5746 52.679 57.3867 52.7222 57.3867C52.7653 57.3867 52.8758 57.3511 53.2446 57.3584C53.6254 57.3916 54.1709 58.0707 54.1709 58.0707L54.6028 59.0411C54.6386 59.161 54.7532 59.2352 54.7532 59.2352L55.1851 59.494C55.1851 59.494 55.4075 59.7356 55.4291 59.7356" fill="#73614F"/>
<path d="M57.9412 58.9773C58.6118 57.3802 58.9158 57.4202 58.659 55.4601C58.6873 55.3854 57.6017 54.0149 57.6017 54.0149C57.5065 53.879 57.5159 53.411 57.5159 53.411C57.5989 52.8393 57.9899 52.2894 57.9899 52.2894C58.1185 52.1748 58.2487 51.7286 58.2487 51.7286L58.3571 50.9308V50.7582L58.841 50.5752C58.841 50.5752 58.7278 52.4125 58.5296 52.5698C58.1031 53.3435 58.06 53.9405 58.4002 54.3602L58.8531 54.9641C58.9232 55.0274 59.1119 55.0287 59.1119 55.0287L59.8449 55.6111L60.707 56.3876L61.2682 57.013C61.6484 57.6601 61.5117 58.2588 61.5117 58.2588C61.4152 58.2801 61.2381 58.2243 61.2381 58.2243L61.2246 57.6816C61.2057 57.3387 60.8585 56.9914 60.8585 56.9914L60.1607 56.2798L59.3269 55.6328L59.1975 55.5897L59.176 55.7838L59.2623 55.9347L59.4774 56.1936L60.5983 57.7534L60.8787 58.2419L60.1257 58.2077L60.0817 57.9189C60.0237 57.287 59.2404 56.5385 59.2404 56.5385L59.1757 56.9052L59.0889 57.8756L59.1972 58.3717C59.1972 58.3717 59.2278 59.0888 59.2061 59.0457C59.1846 59.0026 57.9403 58.9769 57.9403 58.9769" fill="#73614F"/>
<path d="M55.7466 50.5631L56.0068 50.7854C59.6461 51.0249 60.5019 50.0504 60.5019 50.0504C60.8098 49.8617 61.1913 49.2795 61.1913 49.2795L61.5917 49.1182L61.548 48.6006L61.1207 48.7704L60.7289 48.8373L60.4701 48.7942L60.3833 49.2476C60.245 49.8281 57.1919 50.3692 57.1919 50.3692L56.7174 50.3477H56.3071L56.0056 50.4339L55.7468 50.5633" fill="#73614F"/>
<path d="M56.1399 50.2393C56.1399 50.2393 56.1615 49.9805 56.1826 49.9368C56.2047 49.8942 56.312 49.7648 56.312 49.7648C57.9795 49.7755 60.3675 48.9227 60.3675 48.9227C60.7126 48.8858 60.7121 48.7933 60.7121 48.7933C61.0181 48.3283 60.7827 48.252 60.7827 48.252L60.2589 48.4273C58.4927 49.3825 55.8748 49.4674 55.8748 49.4674L55.7729 49.6993L55.794 50.0012L56.1396 50.239" fill="#73614F"/>
<path d="M55.8568 49.3351C55.8048 49.1409 56.051 49.1409 56.051 49.1409C57.2761 49.1239 59.4156 48.3644 59.4591 48.3431C59.5023 48.3214 60.1921 48.0411 60.1921 48.0411C60.4555 47.8267 60.738 47.9211 60.738 47.9211L60.7097 47.4372L60.5803 47.0921C60.5803 47.0921 60.4703 46.9128 60.4703 46.9559C60.4703 46.9991 59.9979 47.5881 59.9979 47.5881C59.4148 48.2172 57.2158 48.6234 57.2158 48.6234L56.7849 48.6881H56.1379C55.7977 48.6868 55.7855 48.1886 55.7855 48.1886L55.4688 48.5156L55.5982 49.0548L55.857 49.3352" fill="#73614F"/>
<path fill-rule="evenodd" clip-rule="evenodd" d="M60.6052 47.1129C60.5688 46.7489 59.9204 46.9592 59.9204 46.9592C58.7789 47.7805 56.8629 48.1346 56.8629 48.1346C55.8704 48.0538 55.7248 48.407 55.7248 48.407C55.346 48.3665 55.2508 48.1481 55.2508 48.1481C55.2508 48.1481 55.1425 47.3282 55.1425 47.2854C55.1425 47.2423 55.0352 47.0913 55.0352 47.0913L55.298 47.1721L55.7679 47.6776C57.3505 47.7558 57.9896 46.8756 57.9896 46.8756C58.8468 46.5557 59.1298 46.4556 59.3707 46.1641C59.4813 46.0298 59.5864 46.0562 59.6295 46.0347C59.6722 46.0131 60.4681 46.001 60.4681 46.001L60.6056 47.1129" fill="#73614F"/>
<path fill-rule="evenodd" clip-rule="evenodd" d="M48.8034 45.0419C48.8034 45.0419 49.3008 44.6639 49.3432 44.6105C49.3795 44.5642 49.5151 44.4164 49.5588 44.3733C49.602 44.3301 49.8177 44.1792 49.8177 44.1792C49.9403 44.2002 50.4 44.1792 50.4 44.1792C50.4062 44.1894 50.4763 44.3134 50.586 44.3943C50.6925 44.472 50.8529 44.6537 50.8529 44.6537L51.1328 44.8478C51.1328 44.8478 51.4137 45.0419 51.4563 45.0419C51.5 45.0419 51.8235 45.1497 51.8235 45.1497L52.1033 45.2576L52.3842 45.4301L52.7725 45.5596L53.0739 45.7105L53.247 45.8394L53.4195 45.9688L53.8787 46.3295L54.1483 46.5072L54.3963 46.6719C54.5613 47.0162 55.2963 47.1766 55.2963 47.1766L55.1022 46.8531L54.9944 46.5511L54.9728 46.1844C54.9728 46.1844 54.9296 45.9472 54.9296 45.9041C54.9296 45.861 54.865 45.7105 54.865 45.7105L54.5414 45.4948L54.2673 45.3236L53.7213 45.2145L53.4846 45.085L53.0797 44.8674C53.0797 44.8674 52.7297 44.74 52.6861 44.74H52.3846L52.0826 44.6321C51.3393 44.259 50.8534 43.7045 50.8534 43.7045L50.5946 43.4456L50.3789 43.3809L50.1201 43.3594L49.7534 43.3809C49.7534 43.3809 49.6046 43.3853 48.8479 43.8985C48.6101 44.1142 48.2866 43.9633 48.2866 43.9633C48.2933 43.9142 48.395 44.3947 48.395 44.3947L48.6322 44.826L48.8043 45.0417" fill="#73614F"/>
<path d="M58.038 46.9123C58.0237 46.7756 57.6921 46.6646 57.6921 46.6646L56.9501 46.6988L56.3462 46.6341L56.023 46.5263L55.7855 46.4184L55.5917 46.289L55.3972 46.1596L54.9659 45.7929L54.707 45.7282L54.427 45.5773L54.2051 45.3125L54.5776 45.34C54.5776 45.34 55.009 45.3616 55.0521 45.3616C55.0953 45.3616 55.4623 45.3831 55.4623 45.3831C55.4623 45.3831 55.7855 45.4694 55.8286 45.4694C55.8717 45.4694 56.1306 45.5557 56.1306 45.5557L56.4975 45.7498L57.0152 45.987C57.5652 46.3111 57.9642 45.9223 57.9642 45.9223L58.223 45.9655C58.4077 46.6314 59.1934 46.4615 59.1934 46.4615C59.1187 46.5653 58.0387 46.9123 58.0387 46.9123" fill="#73614F"/>
<path d="M52.5788 33.0052L52.3626 32.9189L52.1038 32.7679L51.9318 32.6385L51.6945 32.5953L51.4567 32.5522L51.1979 32.4013L50.8318 32.164L50.639 31.8849L50.4435 31.5601L50.1416 31.064L49.9685 30.6111L49.9038 30.3738V30.2228L49.9906 30.1797C50.1222 30.1883 50.292 30.2876 50.292 30.2876C50.5239 30.38 50.8097 30.6542 50.8097 30.6542L51.0685 30.8699L51.2847 30.9777L51.7592 31.1503L52.0391 31.2366L52.7507 31.4091C53.1726 31.5218 53.5271 31.7111 53.5271 31.7111C54.2339 32.2004 54.3257 32.7463 54.3257 32.7463L54.433 33.2424L54.4767 33.7169L54.4551 34.0836L54.4119 34.6012L54.4551 34.8816L54.5624 35.2051L54.6272 35.4208C54.6406 35.575 54.6406 35.6689 54.6272 35.7012C54.5401 35.7098 54.3904 35.6149 54.3904 35.6149C54.3009 35.5475 54.1963 35.3561 54.1963 35.3561L54.0669 35.1404L54.0022 34.8169L53.9801 34.3208L53.9374 33.911V33.3287C54.0043 32.7644 53.5708 32.1636 53.5708 32.1636L53.2904 31.9264L52.9238 31.7539L52.6434 31.646L52.061 31.5166L51.5213 31.4303L51.0037 31.1931L50.767 31.0205C50.4758 30.9855 50.5944 31.2578 50.5944 31.2578L50.7022 31.5166L50.8743 31.7539C51.2886 32.028 51.4787 32.0342 51.4787 32.0342C51.4787 32.0342 52.1684 32.0558 52.233 32.0773C52.2978 32.099 52.4708 32.1636 52.4708 32.1636L52.686 32.2715L52.8801 32.4224L53.0532 32.6597L53.0742 32.8538C52.9434 33.1275 52.5787 33.0048 52.5787 33.0048" fill="#73614F"/>
<path d="M55.6081 42.8747C55.5011 43.0352 55.6473 43.1511 55.8669 43.1986C55.8637 43.226 56.2762 43.3061 56.2762 43.3061C56.3854 43.311 56.4919 43.1767 56.4709 43.1123C56.4488 43.0473 56.3414 42.9829 56.3414 42.9829C56.0193 42.7022 55.6085 42.8747 55.6085 42.8747" fill="#73614F"/>
<path d="M45.808 37.7327C45.7319 37.7516 45.6138 37.6464 45.6138 37.6464C45.4844 37.455 45.5702 37.2367 45.5702 37.2367C45.5842 37.207 45.6605 37.1248 45.6996 37.1072C45.7432 37.0883 45.8511 37.0425 45.8937 37.0425C46.1315 37.0008 46.2447 37.0299 46.4334 37.1072C46.4733 37.1167 46.6491 37.2151 46.6491 37.2151L46.8643 37.3876C46.9807 37.5049 47.0382 37.5912 47.0373 37.6464C47.0373 37.6464 47.0665 38.2517 46.9937 38.3151C46.7632 38.621 46.5116 38.8084 46.2393 38.8758L45.2469 39.1131L44.9664 39.2209L44.8155 39.415L44.6302 39.8567C44.6302 39.8567 44.4623 38.8573 44.4192 38.8352C44.376 38.8136 44.2979 38.2286 44.2979 38.2286L44.9664 38.7678C45.992 38.7727 46.5193 38.2501 46.5193 38.2501L46.5841 37.9698C46.5781 37.8148 46.5714 37.7285 46.5625 37.711C46.5625 37.711 46.4285 37.4866 46.0664 37.6031C45.9694 37.6778 45.8076 37.7325 45.8076 37.7325" fill="#73614F"/>
<path d="M41.0941 26.0622C41.2558 25.9242 42.0369 25.5731 42.0369 25.5731C42.0347 25.5521 43.0149 25.259 43.0149 25.259C43.0149 25.259 43.5413 25.1073 43.6789 25.0843C45.6218 24.7829 47.1153 24.6602 48.1575 24.7163C50.1804 24.7069 51.8921 25.1886 51.8921 25.1886C52.8908 25.4033 54.9682 26.2018 54.9682 26.2018C55.3719 26.356 56.733 27.0756 57.4488 28.193C57.5019 28.2766 58.9506 30.6059 58.9506 30.6059C59.386 31.5142 59.9362 33.535 59.9362 33.535L60.2085 34.6931L60.5602 35.9852C61.0833 37.9605 61.189 39.0613 61.189 39.0613L61.2955 39.9696L61.4743 41.6005L61.5381 42.4522L61.7129 43.8146C61.7479 43.9699 61.2936 45.4214 61.2936 45.4214L60.7698 46.1198L60.2778 46.2592V45.9797L60.8398 45.2467C60.8986 45.2372 61.2241 44.5482 61.2241 44.4785C61.2241 44.4084 61.1189 41.6488 61.1189 41.6488L61.0488 40.1442L60.9531 39.2014C60.9808 39.0913 60.8048 37.9784 60.8048 37.9784C60.8089 37.9123 60.5602 37.244 60.5602 37.244L60.3128 36.3709L60.0688 35.5296L59.8108 34.5012L59.6536 33.5619C59.6328 33.2262 59.0902 31.6521 59.0902 31.6521C58.3834 30.0288 56.9948 28.2965 56.9948 28.2965L56.1217 27.4931C51.3311 24.5743 45.7896 25.1872 45.6033 25.1872C45.6033 25.1872 44.5073 25.3174 43.4347 25.5021C42.436 25.7399 41.8597 26.0243 41.8597 26.0243C41.6014 26.1815 41.1992 26.2354 41.1992 26.2354C41.0043 26.2241 41.0946 26.0607 41.0946 26.0607" fill="#73614F"/>
<path d="M49.5557 26.8278C49.6546 26.8718 49.8409 26.977 50.1145 27.1419C51.2471 27.8618 52.1568 28.307 53.0505 28.5885C53.1206 28.6236 54.8009 29.3298 55.217 30.2864C55.6093 30.8566 55.7757 31.4066 55.7757 31.4066C55.7662 31.306 56.0205 32.2099 56.0205 32.2099L56.3346 33.8519L56.5441 34.4456C56.7767 35.1441 57.2784 35.5637 57.2784 35.5637L58.6056 36.7184C58.6056 36.7184 59.371 37.5631 59.3276 38.2823C59.3713 38.4282 59.2008 38.4975 59.1294 38.2557C59.0464 37.9739 59.0235 37.917 58.934 37.7485C58.7722 37.4453 58.1161 36.8582 58.1161 36.8582L57.3479 36.2996L56.5797 35.7029L56.0562 35.2492C55.7332 34.6642 55.8114 34.1663 55.8114 34.1663L55.8464 33.3981C55.9354 33.0139 55.5318 31.7209 55.5318 31.7209L55.3808 31.3624L55.2527 31.0577L55.0079 30.5315C54.9715 30.5015 54.8348 30.3878 54.5167 30.0772C53.7534 29.1834 52.3509 28.7838 52.3509 28.7838C51.7457 28.6579 51.2977 28.5217 50.8484 28.2953C49.4611 27.4533 49.5577 26.8252 49.5577 26.8252" fill="#73614F"/>
<path d="M41.3975 27.4902C41.7534 27.2964 42.9787 27.0058 42.9787 27.0058C43.0583 26.9621 44.1686 26.7961 44.2383 26.7961C44.3078 26.7961 46.2991 26.517 46.2991 26.517C47.1674 26.455 47.8362 26.7268 47.8362 26.7268C48.0829 26.7955 48.29 26.9707 48.29 26.9707L49.4081 27.8445L50.5282 28.6127C50.5282 28.6127 51.1915 28.9619 51.2964 28.9969C51.4011 29.0319 52.7983 29.5213 52.9384 29.5555C53.0781 29.5908 54.1262 30.0802 54.1262 30.0802C54.1262 30.0802 55.6046 30.9256 55.4789 31.5116C54.8567 30.8543 53.7417 30.3935 53.7417 30.3935C50.6973 29.3776 50.2487 28.8924 50.2487 28.8924L49.4081 28.3326L48.6744 27.8441C47.7095 27.0732 46.3657 27.0138 46.3657 27.0138C45.0371 26.8987 42.7457 27.3395 42.7457 27.3395C41.8319 27.5921 41.3978 27.4902 41.3978 27.4902" fill="#73614F"/>
<path fill-rule="evenodd" clip-rule="evenodd" d="M51.4327 26.2549C51.3621 26.2576 51.9126 26.2973 52.3748 26.4131C52.515 26.4482 53.2003 26.7003 53.2831 26.7281C53.3492 26.7496 54.5255 27.26 54.6807 27.3562C55.393 27.7639 55.8748 28.0988 56.1501 28.3342C56.9466 29.0171 57.1399 29.4689 57.1399 29.4689C57.7012 30.2156 58.131 30.9265 58.4208 31.9701L58.6657 32.8087L58.8051 33.5416L59.0148 34.7646L59.1892 35.4976L58.4908 34.5196L58.236 34.1885L58.037 33.8564L57.8276 33.2277C57.127 30.1226 56.57 29.4524 56.57 29.4524C55.8626 28.382 54.7859 27.7753 54.7859 27.7753C54.5648 27.6257 53.2144 27.0071 53.2144 27.0071C53.2144 27.0071 52.0894 26.5884 51.9576 26.5528C51.1528 26.3372 51.4337 26.2549 51.4337 26.2549" fill="#73614F"/>
<path d="M44.3377 30.1483C45.0375 30.5419 45.4903 30.6025 45.4903 30.6025C46.0457 30.6044 46.6774 30.7446 46.6774 30.7446C46.6774 30.7446 47.0969 30.9541 47.167 31.1639C47.2371 31.3736 47.2371 31.4779 47.2371 31.4779L47.2714 32.1417C47.2714 32.1417 47.4115 32.9099 47.5162 32.9451C47.6213 32.9804 47.6138 33.1751 49.0877 33.5391C49.1557 33.556 49.8483 33.8477 49.929 33.9583C50.1282 34.1141 50.2566 34.2535 50.3132 34.3775C50.8322 35.2292 50.4876 37.0692 50.4876 37.0692L50.5577 37.4534C51.2182 38.0244 51.5709 37.9427 51.5709 37.9427V37.733C51.5709 37.6629 51.3957 37.314 51.3957 37.314L50.7321 34.3421C50.4467 33.7846 49.193 33.2592 49.193 33.2592C48.4601 33.0751 48.4249 32.5262 48.4249 32.5262L48.2496 31.7932L48.0406 31.0244C47.8543 30.0512 46.9916 30.0788 46.9916 30.0788H46.0833L45.6298 30.0446L45.2456 29.9745L44.6517 29.7297C44.6517 29.7297 43.9911 29.5841 44.337 30.1492" fill="#73614F"/>
<path d="M44.4414 31.5975L44.8655 31.6865L45.1796 31.7908C45.4667 31.8029 45.5287 31.7215 45.5287 31.7215L46.1574 31.5117H46.3677L46.7864 31.5813C47.605 31.7746 47.6602 32.2798 47.6602 32.2798L47.1709 32.1404L46.7166 32.1053L46.0181 32.0703L45.5288 32.1053C44.8419 32.3345 44.4418 31.5972 44.4418 31.5972" fill="#73614F"/>
<path fill-rule="evenodd" clip-rule="evenodd" d="M44.2001 28.7536C44.8086 29.5742 45.4528 29.0896 45.4231 29.1387L46.4363 28.9289C46.7099 28.9094 46.9723 28.8968 47.0491 28.9059C47.5079 28.9377 47.6921 29.0133 47.8069 29.0483C48.1216 29.1391 48.3718 29.1759 48.7766 29.802C48.7699 29.7432 49.1258 30.4657 49.1258 30.4657L49.4084 31.2015C49.8443 32.8593 51.5038 33.4722 51.5038 33.4722L52.4818 33.7512L52.7963 33.8914C52.7963 33.8914 53.1779 34.1831 53.2501 34.3802C53.2844 34.473 53.4947 34.8695 53.4947 34.8695L53.7044 35.4974L54.0184 36.3739L54.298 36.6187L54.6472 36.8977L54.964 37.317C54.8462 37.4176 54.8947 37.6661 54.8947 37.6661C54.8947 37.7057 54.5779 37.7713 54.5779 37.7713L54.2401 37.8642C54.0818 37.7969 53.9839 37.5267 53.9839 37.5267L53.8788 37.0029L53.4254 35.4976C53.0803 34.6004 52.4453 34.4347 52.4453 34.4347L51.5722 34.0154L50.3844 33.3517C49.5189 32.9432 49.0544 31.4309 49.0544 31.4309C48.6904 29.9118 48.006 29.5771 48.006 29.5771C47.6448 29.202 45.852 29.4137 45.852 29.4137L45.1521 29.645C45.2303 29.6092 44.0596 30.0313 44.0596 30.0313C44.0596 30.0313 44.0946 29.4724 44.0946 29.4024C44.0946 29.3323 44.1992 28.7383 44.1992 28.7383" fill="#73614F"/>
<path fill-rule="evenodd" clip-rule="evenodd" d="M51.6122 35.0414C52.2917 35.8717 51.997 37.4226 51.997 37.4226L52.1372 38.1555L52.5909 38.8193C52.5909 38.8193 53.3943 39.7276 53.4295 39.7973C54.3612 40.8553 54.1376 41.8616 53.7792 42.6636L53.4295 43.0829L53.3599 43.2225L53.3249 44.1308L53.4646 44.3753C53.6978 44.5199 54.5123 44.55 54.5123 44.55C54.5123 44.55 55.562 44.55 55.6324 44.5851C55.702 44.6193 56.1212 44.515 56.0166 44.4449C55.9115 44.3753 55.7371 44.3052 55.7371 44.3052C55.7371 44.3052 55.2483 43.9211 55.2132 43.8159C55.1782 43.7116 55.1089 43.1175 55.1089 43.0478C55.1089 42.9782 55.0037 42.7334 55.0037 42.7334C54.9754 42.6762 54.8056 42.4094 54.6869 42.7687C54.7082 42.7005 54.6168 43.1526 54.6168 43.1526L54.5123 43.5718L54.128 43.7466C54.0795 43.756 54.021 43.7444 53.9536 43.7115C53.8827 43.6589 53.9186 43.3966 53.9186 43.3966C53.9676 43.2707 54.1976 42.9431 54.1976 42.9431L54.3378 42.4889L54.5123 41.8602L54.5818 41.1244L54.4071 40.4954L54.1976 40.0762L53.3597 38.9588L52.9756 38.4352L52.5909 37.9105L52.4161 37.2818L52.3779 35.7524C52.3994 35.2887 51.9276 34.764 51.9276 34.764C51.3965 34.5554 51.6122 35.0404 51.6122 35.0404" fill="#73614F"/>
<path fill-rule="evenodd" clip-rule="evenodd" d="M40.8594 26.814L41.8995 26.3584L43.1894 26.0597C46.3001 25.5874 48.5011 25.7801 48.5011 25.7801C50.3259 26.1015 51.5082 26.6884 51.5082 26.6884C51.5082 26.6884 54.6002 27.9922 55.7722 29.3774C56.124 29.8546 56.2612 30.2857 56.2612 30.2857L57.1343 32.9774C57.4053 33.8132 57.6937 34.1652 57.6937 34.1652C57.8919 34.4302 58.1475 34.5493 58.1475 34.5493L58.4621 34.6895C58.7676 34.809 59.021 35.1781 59.021 35.1781C59.3823 35.6768 59.3701 36.1237 59.3701 36.1237C59.4416 36.1727 59.3701 36.6129 59.3701 36.6129L59.0561 36.2288L58.4386 35.6065C57.0665 34.8445 56.6807 32.8375 56.6807 32.8375L56.4359 31.7898L56.0862 30.7414C55.708 28.7854 50.5654 26.7225 50.5654 26.7225C48.4017 25.6796 45.672 26.024 45.672 26.024C45.3425 26.0304 44.4849 26.1633 44.4849 26.1633L42.2466 26.5476L41.377 26.7376L40.8594 26.8131" fill="#73614F"/>
<path d="M58.9491 46.747C59.0831 46.7392 59.1648 46.5995 59.1936 46.328L59.2988 45.8384L59.3683 45.2097L59.4034 44.6861L59.4735 44.1272V43.673C59.1055 42.7688 57.8667 42.2408 57.8667 42.2408L57.2026 42.0313L56.7134 41.7523L56.3291 41.4005L55.945 41.1557L55.4565 41.0163C55.1693 40.9979 55.3513 40.8419 55.3513 40.8419C55.3513 40.8419 55.5258 40.7715 55.6659 40.7715C55.8056 40.7715 56.1898 40.8068 56.2941 40.8419C56.3993 40.8761 56.7483 40.9462 56.7483 40.9462C56.7483 40.9462 57.0611 41.2594 57.2728 41.3655C58.1079 41.7825 59.9617 43.1496 59.9617 43.1496C60.1836 43.2871 60.1715 43.7436 60.1715 43.7436V44.1978L60.1364 44.6866L60.0318 45.0354L59.8574 45.8036L59.7873 46.293C59.7873 46.293 59.6827 46.4676 59.6476 46.5378C59.6125 46.6073 59.4381 46.7817 59.4381 46.7817L59.1583 46.8519L58.9488 46.7472" fill="#73614F"/>
<path fill-rule="evenodd" clip-rule="evenodd" d="M60.136 42.9787L59.6823 42.2098C59.6823 42.2098 59.2072 41.2691 58.2839 40.8239C57.7488 40.6711 57.6342 40.4419 57.6342 40.4419C57.6221 40.4276 57.6213 39.8326 57.6213 39.8326C57.7299 38.9119 56.9228 38.121 56.9228 38.121C56.9228 38.121 55.9448 37.5971 55.8751 37.5621C55.805 37.5273 54.8764 37.2483 54.7895 37.213C54.7247 37.186 54.091 36.6886 54.091 36.6886L53.9517 36.3047L54.2307 36.4791L55.1411 36.9334L57.2323 37.9652C57.7101 38.2235 57.9701 38.5403 57.9701 38.5403C58.064 38.7303 58.25 39.588 58.25 39.588C58.2837 39.9061 58.5992 40.1119 58.5992 40.1119C58.752 40.2507 60.0313 41.4398 60.0313 41.4398C60.2639 41.7652 60.1358 42.9789 60.1358 42.9789" fill="#73614F"/>
<path d="M44.7244 29.2578C44.5713 29.0148 44.6212 28.715 44.6212 28.715C44.9657 28.1103 47.6946 28.4284 47.9748 28.5748L49.1978 29.2386L50.4926 29.937C52.7302 31.0862 54.2817 31.4451 54.2817 31.4451C55.0319 31.8954 54.9287 33.7475 54.9287 33.7475L54.9659 34.7607L55.001 35.3547L55.0711 35.809C55.1088 36.1155 55.3852 36.3005 55.3852 36.3005L58.1445 37.9072C58.1445 37.9072 58.8996 38.3861 58.9831 39.6196C58.9817 40.0843 58.7733 40.3173 58.7733 40.3173C58.7903 40.4187 58.7733 40.6323 58.7733 40.6323C58.7733 40.6323 58.8084 40.7016 59.0532 40.842C59.2977 40.9814 59.5417 41.1211 59.5417 41.1211L59.5067 40.807L59.3672 40.3173L59.3322 39.1999L59.3902 38.369C59.4158 38.1568 59.2883 38.0436 59.0532 37.9066L58.7032 37.7322L57.307 37.0337L56.8176 36.7539L56.1192 36.3349L55.6654 35.8434L55.3858 35.319L55.2112 34.6908L55.141 34.0964V33.6076L55.1095 32.9649L55.0717 32.3149C55.1949 31.312 53.0433 30.7433 53.0433 30.7433L51.5063 30.2171L50.8773 29.9372L49.7951 29.169C49.787 29.1156 48.7094 28.436 48.7094 28.436C47.2794 27.6672 45.7023 27.7593 45.7023 27.7593L45.0274 27.8146C44.4688 27.9027 44.1689 28.1912 44.1689 28.1912L44.1338 28.4707C44.1338 28.4707 44.1912 28.738 44.2201 28.8018C44.2618 28.8949 44.3786 29.0647 44.3786 29.0647L44.7237 29.2511" fill="#73614F"/>
<path d="M44.6275 32.453C44.6887 32.497 46.5041 33.9521 46.5041 33.9521C47.1894 34.5835 48.2406 34.7721 48.2406 34.7721C48.4622 34.8238 49.0923 34.7933 49.0923 34.7933C49.7178 34.9551 49.6855 35.7534 49.6855 35.7534C49.8774 36.9198 49.3328 36.9336 49.3328 36.9336C49.1786 37.0258 49.0537 37.0733 49.0537 37.0733C49.0537 37.0733 48.7741 37.2477 49.0187 37.2827C49.2627 37.3178 50.174 37.2132 50.174 37.2132L49.8594 35.0101C49.6208 34.1467 48.4128 34.244 48.4128 34.244C48.1432 34.2979 47.7765 34.2548 47.7765 34.2548C46.9676 34.0496 46.461 33.5535 46.461 33.5535L44.7252 32.2484C44.2229 32.0651 44.6281 32.4533 44.6281 32.4533" fill="#73614F"/>
<path d="M58.4449 46.3329L58.5271 45.774L58.7307 45.039C58.7523 44.9419 58.666 44.7529 58.666 44.7529C58.666 44.7206 58.1807 44.1167 58.1807 44.1167C58.1214 44.0037 58.1591 43.5936 58.1591 43.5936C58.1686 43.3796 58.0464 42.942 57.7938 42.2808C57.4959 41.7985 56.9904 41.6522 56.9904 41.6522C56.9904 41.6522 56.7109 41.5424 56.7109 41.5802C56.6538 41.5987 56.6529 41.6554 56.709 41.7484C57.4206 42.4669 57.5496 43.2944 57.5496 43.2944C57.5828 43.4216 57.5747 43.3955 57.6097 43.4647C57.6448 43.5348 57.724 43.7837 57.724 43.7837L57.8645 44.1328L58.2487 44.901C58.4024 45.1037 58.039 45.5995 58.039 45.5995L58.074 46.0888L58.4456 46.3336" fill="#73614F"/>
<path d="M58.3901 46.5048L58.355 45.9805C58.355 45.9805 58.293 45.4925 58.2156 45.4219C56.9967 44.3079 55.5605 44.339 55.5605 44.339L55.3159 44.4085L55.4332 44.5829C58.3017 45.2138 57.9731 45.9523 57.9731 45.9523C58.0985 46.1019 58.041 46.1898 58.041 46.1898L58.2157 46.3993L58.3902 46.5044" fill="#73614F"/>
<path d="M54.3731 44.2341C54.3731 44.2341 55.3035 44.1255 55.3815 44.103C56.7908 43.7054 57.6591 43.9901 57.6591 43.9901C57.8297 43.9955 57.9915 44.2433 57.9915 44.2433L58.0885 44.1303L58.0783 43.9197C58.0561 43.5908 57.4253 43.5156 57.4253 43.5156L55.8834 43.5962L55.214 43.7103L54.1636 43.9901L54.3733 44.2341" fill="#73614F"/>
<path d="M52.8545 35.3447L52.8681 35.7734C52.8681 35.7734 52.7961 37.1068 52.7979 36.964C52.7893 36.9375 52.8284 37.7011 53.1128 37.942C53.2813 38.046 53.6445 38.3647 53.6445 38.3647C53.861 38.5189 54.2161 39.1577 54.2161 39.1577C54.2161 39.1577 54.5333 40.2006 54.4749 40.282L54.3705 40.8418L54.5302 41.1577C54.5302 41.1577 55.1065 41.0504 55.1758 41.0504C55.2459 41.0504 55.4557 40.9811 55.4557 40.9811L55.4908 40.8067C55.4908 40.8067 55.3154 40.7013 55.2459 40.7363C55.1758 40.7714 55.0715 40.8067 55.0715 40.8067L54.9664 40.3524C54.9615 40.1575 54.5674 39.3931 54.5674 39.3931L54.4749 39.1294L54.2654 38.4657L53.8461 37.8717C53.5402 37.7544 53.3223 37.3131 53.3223 37.3131C53.1978 37.1047 53.1479 35.7388 53.1479 35.7388C53.1209 35.5968 52.8545 35.3452 52.8545 35.3452" fill="#73614F"/>
<path d="M56.9199 41.4392C57.0417 41.5209 56.7802 41.02 56.7802 41.02L56.9199 39.8667C56.8269 38.6119 55.5575 37.8065 55.5575 37.8065L54.8916 37.5967L54.5075 37.6317C54.1065 37.9647 53.6337 37.8065 53.6337 37.8065C53.6337 37.8065 52.6909 38.0162 52.5163 37.9458C52.3419 37.8757 52.1666 37.6662 52.1666 37.6662C52.1666 37.6662 52.0633 37.3589 52.0269 37.4565C51.9514 37.6595 51.3983 37.4565 51.3983 37.4565L50.3851 37.0381L50.2807 37.0726L49.5125 37.1774L49.4775 37.3171L49.652 37.3872C49.652 37.3872 51.3277 37.921 51.5741 38.8807C51.6019 38.9881 51.9919 38.994 52.0621 38.994C52.1322 38.994 52.9006 38.7144 52.9006 38.7144C52.9006 38.7144 53.173 38.0014 53.7744 38.365C53.8634 38.4189 54.6475 38.3299 54.6475 38.3299L55.3487 38.4354C56.1811 38.6659 56.3267 40.1111 56.3267 40.1111C56.3968 40.2635 56.1523 40.6005 56.1523 40.6005C56.1523 40.6005 56.5567 41.3438 56.6066 41.4039C56.8093 41.6457 56.9207 41.4389 56.9207 41.4389" fill="#73614F"/>
<path d="M44.372 36.0285L44.6166 35.8541L44.8263 35.6446C44.8263 35.6446 45.0703 35.3647 45.1754 35.3647H45.5246C45.5246 35.3647 46.1452 35.4785 46.2507 35.5135C46.3552 35.548 46.8869 35.7489 46.8869 35.7489L47.586 35.8891L47.8651 35.9241L48.3193 36.1708L48.5639 36.4849L48.6685 36.6944L48.7036 36.9742L48.913 37.1487L49.3695 37.2541L49.1578 36.6251L48.8079 35.819L48.5639 35.6095L48.2843 35.4698C46.6306 35.1738 46.5381 34.8409 46.5381 34.8409L46.3636 34.6665L45.6645 34.0374L44.7362 33.0836C44.6815 33.0008 44.2253 32.7256 44.2253 32.7256C44.0695 32.7676 44.1625 32.9197 44.1625 32.9197L44.9659 33.5829C44.9659 33.5829 45.5248 34.4214 45.6643 34.5263C45.804 34.631 45.8741 34.8404 45.8741 34.8404C45.7662 35.0313 45.56 34.8404 45.56 34.8404L45.3502 34.5609L44.188 33.4559C43.7652 33.2109 44.0586 33.6527 44.0586 33.6527C44.1085 33.7366 44.8267 34.5955 44.8267 34.5955L44.896 34.9797L44.7215 35.1199L44.4767 35.0147L44.3374 35.0848L44.1276 35.5041L44.3725 36.0276" fill="#73614F"/>
<path fill-rule="evenodd" clip-rule="evenodd" d="M53.0066 44.7927L52.902 44.5132L52.867 44.1991C52.9244 43.9353 53.3213 44.0939 53.3213 44.0939C53.3213 44.0939 53.531 44.0589 53.6003 44.0589C53.6704 44.0589 53.659 43.161 53.659 43.161L53.1468 43.1507L52.6925 43.1857C52.6925 43.1857 52.4437 42.8698 52.5874 42.8711C53.5281 42.8787 53.5654 41.5418 53.5654 41.5418C53.5176 41.2291 53.3214 41.4021 53.3214 41.4021C53.0971 42.4802 52.3082 42.6265 52.3082 42.6265L51.889 42.6615L51.6091 42.5922L51.4694 42.452C52.493 41.9079 52.6572 41.4015 52.6572 41.4015C52.7948 41.2824 52.7624 40.5982 52.7624 40.5982L52.6923 40.249C52.5683 40.1282 52.4475 40.2832 52.4475 40.2832V40.5631C52.4537 40.6831 52.4421 40.8112 52.4124 40.9473C51.7167 42.3822 51.0852 41.8928 51.0852 41.8928L50.9455 41.7534C52.1257 41.5949 51.9235 39.2356 51.9235 39.2356L51.8885 38.921L51.7488 38.7813L51.587 38.7996C51.716 39.1146 51.7488 39.8639 51.7488 39.8639C51.7914 39.848 51.4248 41.4009 50.4561 41.1918C50.3881 41.177 50.0719 41.122 50.1069 41.0516C50.142 40.9823 50.1069 40.843 50.2116 40.8079C50.3167 40.7726 50.5262 40.6677 50.5957 40.6332C50.6659 40.5982 50.9799 40.2832 50.9799 40.2832L51.1201 39.9692L51.1552 39.5499L51.1201 39.3755C51.0837 39.3332 50.9799 39.3755 50.9799 39.3755L50.9104 39.5149C50.8033 40.4942 49.9669 40.5984 49.9669 40.5984L49.5827 40.7729H49.3711L49.266 40.7028C50.1204 40.0961 50.177 39.4453 50.177 39.4453L50.2115 39.0608C50.212 38.8855 50.1999 38.8042 50.177 38.8168C50.1635 38.7872 50.0367 38.8168 50.0367 38.8168C50.039 38.7912 49.9325 38.9565 49.9325 38.9565L49.7577 39.5151C49.5267 40.1503 48.9164 40.4233 48.9164 40.4233C48.5883 40.4408 48.742 40.1788 48.742 40.1788C49.5157 39.3948 49.4432 39.1304 49.4432 39.1304L49.406 38.5368C49.3259 38.451 49.2308 38.5368 49.2308 38.5368L49.1264 38.8508C49.0307 39.4917 48.4974 40.0041 48.3582 40.0041C48.2186 40.0041 48.1134 40.0737 48.1134 40.0737L48.0441 39.8993L48.2882 39.7596L48.4976 39.5148L48.6723 39.201C48.7012 38.9971 48.7128 38.8578 48.7074 38.7815C48.7524 38.6117 48.7761 38.5189 48.7774 38.5019C48.7155 38.4426 48.6028 38.4669 48.6028 38.4669C48.5731 38.4556 48.5327 38.6413 48.5327 38.6413C48.406 39.0209 48.2544 39.277 48.0784 39.4102C48.0784 39.4102 47.8055 39.384 47.9039 39.305C48.1574 39.1033 48.1485 38.4664 48.1485 38.4664L48.1134 37.5933L48.2186 37.3838L48.7774 37.2437L49.5829 37.3138L49.7932 37.139L49.4435 36.8595L48.7078 36.7549L48.3586 36.8945L48.0788 36.9296L47.6946 36.8945L47.5553 36.825L46.7871 36.3359C46.6212 36.306 46.5167 36.306 46.4722 36.3359C46.4722 36.3359 46.3158 36.4942 46.5423 36.5805C46.6407 36.6282 48.4251 37.2976 47.5555 39.1652C47.5339 39.2493 47.3457 39.3747 47.3457 39.3747C47.2783 39.4305 46.7871 39.4443 46.7871 39.4443C46.7364 39.4502 46.4029 39.3046 46.4029 39.3046L46.088 38.9905V38.6756L45.1804 38.8158L45.1108 39.0255L45.1453 39.1652C45.1453 39.1652 45.4263 39.434 45.4594 39.4443C45.5664 39.4911 45.7039 39.829 45.7039 39.829C45.7128 39.8263 45.7039 40.4572 45.7039 40.4572L45.646 42.4145C45.6495 42.596 45.9784 43.2 45.9784 43.2C45.9776 43.2064 46.2755 43.1641 46.2755 43.1641C46.0881 42.809 45.9596 42.3172 45.9838 41.997L46.1232 40.9465C46.1232 40.9465 46.2634 40.5273 46.2634 40.4572C46.2634 40.3879 46.341 39.8708 46.341 39.8708C46.341 39.8708 46.368 39.7589 46.4723 39.7589C46.5775 39.7589 46.6475 39.794 46.6475 39.794C46.6983 39.8201 46.7171 39.8986 46.7171 39.8986C46.7271 39.9091 46.6818 40.6668 46.6818 40.6668C46.2278 42.317 46.471 43.1542 46.471 43.1542C46.496 43.1453 46.9328 43.103 46.9328 43.103C46.6659 42.6457 46.6475 42.1719 46.6475 42.1719L46.7522 41.6476L46.8915 41.1213L46.9967 40.318L47.0663 40.1786H47.2064L47.2415 40.5277V41.4015L47.1336 42.0588C47.1013 42.6408 47.2461 43.0775 47.2461 43.0775L47.5435 43.0518L47.451 42.6609L47.4159 42.1373C47.4159 42.1373 47.451 41.7201 47.451 41.6481C47.451 41.5761 47.6257 40.9469 47.6257 40.9469L47.7651 40.7371C48.0503 40.6454 48.0792 40.9819 48.0792 40.9819L47.8001 42.4161C47.8001 42.4161 47.7368 43.0772 47.7651 43.1498C47.8023 43.2441 48.0449 43.6386 48.0449 43.6386C48.098 43.7186 48.1843 43.569 48.1843 43.569C48.1802 43.6313 48.2889 41.9968 48.2889 41.9968C48.2889 41.9968 48.417 41.7887 48.6434 41.907C49.0282 41.9245 49.1274 41.5053 49.1274 41.5053C49.1274 41.5053 49.6361 41.0106 49.6536 41.9622C49.6571 42.1338 49.3767 42.5001 49.3767 42.5001C49.0964 42.8128 49.5924 42.6622 49.5924 42.6622L49.9677 42.5212C49.9677 42.5212 50.2475 42.451 50.3177 42.451C50.3869 42.451 50.4571 42.451 50.5967 42.5212C50.7366 42.5913 50.8062 42.7306 50.8062 42.7306L50.5622 43.2194C50.5622 43.2194 50.505 43.6314 50.5622 43.7438C50.6924 43.9994 50.9463 43.7438 50.9463 43.7438C50.9463 43.7438 50.8763 43.464 50.9114 43.3938C50.9463 43.3246 51.0159 43.1499 51.0159 43.1499C51.113 42.9854 51.5053 43.0097 51.5053 43.0097C52.2127 43.3305 52.3438 44.477 52.3438 44.477C52.418 44.6355 52.1686 44.6868 52.1686 44.6868L52.3088 44.9663L53.3917 45.3505L52.9845 44.7638" fill="#73614F"/>
<path d="M59.2666 35.8008L59.5753 36.3386L60.0296 37.806L60.3086 41.4729L60.3787 42.943V44.1308C60.2426 44.746 60.0296 44.9342 60.0296 44.9342C60.0161 44.9315 59.8894 44.2357 59.8894 44.2357V42.6635L59.8201 40.8455C59.8309 37.6182 59.2747 36.4449 59.2747 36.4449L59.2666 35.8014" fill="#73614F"/>
<path d="M54.0557 36.6494L54.6442 38.3652L55.1065 39.3398L55.525 40.3881C55.6517 40.5378 55.525 40.8074 55.525 40.8074L55.8048 41.0168L56.573 41.366C56.573 41.366 56.8175 41.401 56.7474 41.2263C56.6782 41.0511 56.2239 40.5278 56.0144 40.3532C55.8049 40.1785 55.7699 40.1785 55.7349 40.0733C55.6998 39.9688 55.2461 38.4666 55.2461 38.4666L54.8942 37.3844L54.44 36.7554L54.0558 36.6503" fill="#73614F"/>
<path d="M42.5985 33.1981C42.4934 33.4038 42.962 33.8144 42.962 33.8144C43.0307 33.9099 43.6529 34.6806 43.6529 34.6806C43.6529 34.6806 44.2401 35.1982 44.1538 36.1845C44.2562 37.0804 43.9125 37.2156 43.744 37.6953C43.7122 38.2321 43.984 39.28 43.984 39.28C44.1201 39.5995 44.4733 41.5686 44.4733 41.5686C44.4733 41.5686 44.61 43.4901 44.7011 43.4901C44.831 43.6414 45.6514 43.6715 47.1616 43.5813C48.2037 44.0678 48.1237 45.3005 48.2155 45.3005C48.3066 45.3005 48.574 45.1757 48.574 45.1757L48.7636 44.72C48.8652 44.5286 48.9191 44.2361 48.9191 44.2361C48.5147 44.1134 48.3296 43.8991 48.3296 43.8991C48.1597 43.6543 48.2392 43.2979 48.2392 43.2979C48.2945 42.9514 47.631 43.0086 47.631 43.0086C45.3354 43.2647 45.1918 43.0409 45.1918 43.0409C45.008 42.8085 44.6399 39.7432 44.6399 39.7432L44.245 38.1047C44.2396 37.5908 44.6076 36.9176 44.6076 36.9176C44.7519 36.2853 44.6157 35.3571 44.6157 35.3571C44.3757 34.6772 43.6977 33.9505 43.6977 33.9505C43.2556 33.5092 43.3122 33.269 43.3122 33.269C44.1439 31.509 44.3116 30.3232 44.3116 30.3232L44.427 29.3397C44.2881 28.1071 43.9255 27.9725 43.9255 27.9725C43.7597 27.8355 43.196 27.6535 43.196 27.6535C42.6136 27.4594 41.8059 27.4195 41.5934 27.4257C41.3412 27.4036 40.7272 27.5165 40.7272 27.5165C40.4535 27.5632 40.1354 27.6994 40.1354 27.6994C40.1354 27.6994 39.7234 27.8975 40.1017 27.9169C40.1926 27.9218 41.2743 27.7444 41.5476 27.7902C41.8207 27.8355 42.4773 27.8436 43.4953 28.2755C44.3429 28.5311 43.7879 30.616 43.7879 30.616L42.5939 33.1903" fill="#73614F"/>
<path fill-rule="evenodd" clip-rule="evenodd" d="M45.5733 55.1806L43.7995 57.4099L41.4011 60.9906L39.9848 63.8432L38.1593 70.3378H39.0213C39.6253 65.0751 42.6144 60.1438 42.6144 60.1438L45.3006 56.5479L48.4838 52.5573L51.1244 50.0257C51.1244 50.0257 54.144 47.7405 54.42 47.5086C54.6236 47.0624 54.9175 48.2215 54.9175 48.2215C55.2054 48.7823 55.3407 49.0145 55.3407 49.0145C55.7985 50.4715 55.3071 50.4039 55.3071 50.4039C54.2911 50.5406 53.8404 51.2915 53.8404 51.2915C53.1364 52.3958 53.5196 53.6974 53.5196 53.6974C52.0791 53.543 51.6643 54.6326 51.6643 54.6326C50.8057 56.2601 51.4878 57.8524 51.4878 57.8524C51.4878 57.8524 51.7002 58.9132 51.6544 59.6896C51.649 59.7916 51.6091 60.8567 52.0486 61.0997C52.4429 61.3876 52.7767 61.4483 52.7767 61.4483C52.7767 61.4483 53.0185 61.9327 53.3833 61.9791C54.0983 62.0702 54.5684 61.1302 54.6139 61.0839C54.6597 61.0389 55.4628 60.3109 55.4628 60.3109C55.4628 60.3109 55.9179 60.0077 56.5395 60.1594C56.615 60.1748 57.4036 60.1142 57.4036 60.1142C58.2374 60.0683 58.5252 59.25 58.5252 59.25C58.5252 59.25 58.5858 61.2509 59.9532 61.6602C59.817 61.8422 59.8367 62.2048 59.8367 62.2048C59.5717 63.3284 60.3934 63.8737 60.3934 63.8737C62.1665 64.9531 63.9555 63.9195 63.9555 63.9195C65.0232 63.3116 65.0777 61.8117 65.0777 61.8117C65.2071 60.5942 65.0621 59.8861 65.0621 59.8861C64.0765 58.3221 65.0926 57.2302 65.0926 57.2302C65.4301 56.9256 65.6546 56.333 65.7679 55.4523C65.8992 54.0002 65.1565 53.4825 65.1565 53.4825C64.6664 53.0822 64.8114 52.6267 64.8114 52.6267L64.9631 50.8619C64.9785 49.9819 64.5992 49.2545 64.5992 49.2545C64.4779 48.8454 63.811 48.5422 63.811 48.5422C63.3257 48.4362 62.6136 48.4511 62.6136 48.4511C61.0972 48.5422 61.1987 48.8261 61.0227 48.7601C60.9095 48.7169 61.2357 48.3826 61.1427 47.8725C60.6911 47.0484 60.937 46.5542 60.937 46.5542L61.7155 45.4548C62.8018 43.5271 62.6189 41.1867 62.6189 41.1867C62.3386 37.1105 61.5623 34.9426 61.5623 34.9426C60.4407 31.3184 58.7367 28.0939 58.7367 28.0939C56.5363 24.5457 51.7934 23.899 51.7934 23.899C49.464 23.4245 45.4416 23.597 45.4416 23.597C43.36 23.7587 42.1847 24.2763 42.1847 24.2763C42.1847 24.2763 40.3508 24.9872 39.582 26.2068C39.5577 26.2454 39.3192 26.8466 39.3995 26.8902C39.6117 27.007 39.582 27.1639 39.582 27.1639C39.6435 27.3599 39.3995 27.6109 39.3995 27.6109L38.8279 28.4978C38.8279 28.4978 38.5386 28.9669 38.2361 30.0017C38.2429 30.0143 37.8498 30.9914 37.8498 30.9914C37.6835 31.6735 37.4961 32.3104 37.4961 32.3104C37.4414 32.3896 36.7493 33.8246 36.7493 33.8246C36.545 34.8992 36.1656 35.3237 36.1656 35.3237L33.4104 39.6008C33.086 40.2019 33.0631 40.7769 33.1368 40.9922C33.2338 41.2779 33.3052 41.4073 33.5789 41.4073C33.8526 41.4073 34.4257 41.4653 34.6142 41.4612C35.1102 41.4505 35.1372 41.8495 35.1372 41.8495C35.1372 41.8495 35.1512 43.118 35.1642 43.2188C35.1803 43.3482 35.2019 43.9794 35.2019 43.9794C35.2019 43.9794 35.1696 44.3835 35.698 44.5887C35.7141 44.6154 35.795 44.7127 35.6096 45.0036C35.5686 45.0955 35.4391 45.8215 35.4607 45.8829C35.4877 45.9584 35.4728 46.0606 35.6602 46.1417C36.2372 46.3898 36.2318 46.8042 36.2318 46.8042C36.3396 47.0476 35.7465 48.0644 35.7465 48.0644C35.4122 48.595 35.5578 50.1605 35.5739 50.2606C35.7789 51.5333 37.229 51.8604 37.229 51.8604C38.6956 51.9252 39.5218 51.8807 39.5218 51.8807L41.2369 51.7194C41.7492 51.6709 41.7634 52.5691 41.7634 52.5691L43.101 58.4701C43.5532 57.8037 43.5243 57.8298 43.5243 57.8298L43.2736 56.5109L42.524 53.0655C42.2275 51.4374 42.2464 51.9019 42.2464 51.7203C42.2464 51.5379 42.8314 51.4785 42.8314 51.4785C46.8186 50.7924 47.2223 49.5481 47.4038 49.2865C48.0501 48.1566 49.1024 44.8645 49.1024 44.8645C49.1024 44.8645 49.4453 44.442 49.7548 44.3522C50.1646 44.2339 50.5527 44.4709 50.5527 44.4709C50.7307 44.5733 51.162 45.0694 51.162 45.0694C51.437 45.2692 52.0517 45.4576 52.0517 45.4576C52.3105 45.5169 53.2215 45.9051 53.3244 45.9375C53.4112 45.9648 53.7023 46.199 53.788 46.2667C53.8668 46.3284 54.8019 46.5697 54.8019 46.5697C54.6172 46.1869 54.7143 46.1257 53.9551 45.5496C53.8397 45.4628 51.9328 44.838 51.9328 44.838C51.4422 44.5573 51.164 44.2783 51.0646 44.1964C50.3906 43.6356 50.0348 43.5439 50.0348 43.5439C49.3446 43.4253 48.4874 44.5413 48.4874 44.5413L48.2017 45.1431C48.2785 45.8885 46.96 48.7024 46.96 48.7024C46.7659 49.0693 46.6775 49.7314 45.6687 49.9261C44.8212 50.2488 44.3035 50.3903 43.2945 50.5717C41.6001 50.9551 40.4088 50.9551 40.4088 50.9551L38.3576 50.9959C34.8156 51.0926 36.1228 48.2758 36.1228 48.2758L36.4423 47.5056C36.525 47.2818 36.6822 47.391 36.8642 47.3991C37.398 47.422 36.9518 46.9505 36.9518 46.9505C36.7488 46.7367 36.4724 46.2368 36.9065 45.8414C36.9173 45.7282 36.6916 45.7664 36.6916 45.7664C36.236 46.0651 36.023 45.805 36.023 45.805C35.748 45.3862 36.1443 45.1356 36.1443 45.1356C36.1443 45.1356 36.3694 44.8851 37.2148 45.1127C37.4116 45.166 37.8988 45.1121 37.8988 45.1121C38.2466 45.0493 38.2393 44.7732 38.2393 44.7732C37.7856 44.4467 37.8956 44.4723 37.6764 44.3712C37.5618 44.3189 37.4655 44.9778 36.7294 44.4602C36.3412 44.0884 36.2765 44.1299 36.2306 44.1299C35.8079 44.1299 35.754 44.2548 35.6376 43.7875L35.5998 42.0945L35.6165 41.5958L36.3771 41.6936C36.8368 41.8553 37.088 41.792 37.088 41.792C36.9263 41.854 37.8686 41.7084 37.5329 40.9009C37.3253 41.4003 36.3195 41.1166 36.3195 41.1166C35.5921 40.5901 34.5817 40.8462 34.5817 40.8462C33.2924 41.033 33.8791 40.0622 33.8791 40.0622L35.111 38.111C35.111 38.111 36.4534 36.2365 37.1747 35.0135C37.3356 33.6959 37.5675 33.1893 37.5675 33.1893C38.0967 32.6021 38.245 32.0933 38.2583 32.0491C38.9796 29.6694 39.0955 29.2 39.0955 29.2C39.1945 28.797 39.6819 28.0129 40.235 27.9135C39.7627 27.4291 39.8778 26.4172 40.2175 26.1632C40.4785 25.8208 41.19 25.3357 41.19 25.3357C41.3625 25.2063 43.3254 24.279 45.5464 24.2031C47.6915 24.1295 49.515 24.2354 51.0354 24.4188C52.3848 24.5819 55.9854 26.1553 55.9854 26.1553C57.0808 26.7101 57.9373 27.967 57.9373 27.967C58.6275 28.7 60.0831 32.0971 60.0831 32.0971C60.0831 32.0971 61.148 35.7213 61.1936 35.7213C61.2386 35.7213 61.9852 38.1969 62.1164 42.3104C61.9533 45.045 60.6331 45.8152 60.6331 45.8262C60.4282 46.236 60.4342 46.5105 60.4342 46.5105C60.4067 46.9478 60.4795 47.24 60.4795 47.24C60.813 47.9502 60.7334 48.2891 60.7334 48.2891C60.7761 48.3834 60.4795 48.9787 60.4795 48.9787C60.4795 48.9787 60.3743 49.4282 61.2325 49.2874C61.4126 49.2583 62 49.127 62 49.127C63.3037 48.9661 64.2486 49.0534 64.5385 50.6427C64.5385 50.6427 64.1724 52.0293 64.3112 53.2399C65.4818 54.5498 65.2926 55.7142 65.2926 55.7604C65.2926 55.8062 65.3034 55.9208 64.8411 56.5044C64.8128 56.5403 64.097 57.7357 64.097 57.7357C63.8005 58.9912 64.2327 59.8028 64.2327 59.8028C64.66 60.5013 64.4461 61.9962 64.4461 61.9962C63.9218 64.7031 59.0599 64.2862 60.4286 61.5109C59.2739 60.7144 59.1966 60.0159 59.1966 60.0159L58.594 58.2822L57.5856 59.2781C57.1974 59.7634 56.266 59.7634 56.266 59.7634L54.9132 59.6569C54.9132 59.6569 55.0238 60.326 54.3444 60.7143C53.4037 61.9373 52.9378 61.1605 52.9378 61.1605C51.9094 60.4811 52.0647 58.007 52.0647 58.007C51.1716 56.9207 51.9898 55.5486 51.9898 55.5486C52.2391 54.0095 53.9078 54.0481 53.9078 54.0481C53.9078 54.0481 53.9018 53.3639 53.9078 53.0294C53.9185 52.4699 54.275 51.7132 54.275 51.7132C54.8158 51.0872 55.3233 51.0023 55.3233 51.0023C56.2503 50.9571 56.0239 50.0533 56.0239 50.0533L55.7926 48.998L55.3782 47.4658C55.279 47.1809 54.7883 46.552 54.7883 46.552L54.2397 46.9101L51.1753 49.2574C48.75 51.1382 45.5779 55.1889 45.5779 55.1889" fill="#73614F"/>
<path d="M34.1642 59.2391L34.2654 59.088L34.371 58.894L34.4945 58.7883L34.6002 58.6824L34.673 58.4742C34.7035 58.4578 34.4945 58.5414 34.4945 58.5414L34.3004 58.6298L34.1769 58.7179L34.034 58.8085L33.9432 59.3299L34.164 59.2333L34.1642 59.2391ZM34.1642 59.2391L34.2654 59.088L34.371 58.894L34.4945 58.7883L34.6002 58.6824L34.673 58.4742C34.7035 58.4578 34.4945 58.5414 34.4945 58.5414L34.3004 58.6298L34.1769 58.7179L34.034 58.8085L33.9432 59.3299L34.164 59.2333L34.1642 59.2391ZM35.5444 44.1527L35.3085 44.1926L35.1314 44.3107L34.8159 44.4878L34.58 44.6455L34.3433 44.8025L34.1074 44.9211L34.009 45.0195L33.8116 45.1767L33.6545 45.2953C33.6545 45.2953 33.4881 45.3633 33.4496 45.37C33.3201 45.3918 33.3197 45.2166 33.3587 45.1969C33.3983 45.1767 33.5758 45.0391 33.5758 45.0391L33.8318 44.8814L34.0481 44.7043L34.2255 44.5669L34.4619 44.4089L34.7175 44.2713L34.9143 44.1136L35.033 44.0349L35.1508 43.9559L35.2689 43.8575L35.4851 43.9168L35.6037 43.9958L35.5416 44.1476L35.5444 44.1527ZM35.5444 44.1527L35.3085 44.1926L35.1314 44.3107L34.8159 44.4878L34.58 44.6455L34.3433 44.8025L34.1074 44.9211L34.009 45.0195L33.8116 45.1767L33.6545 45.2953C33.6545 45.2953 33.4881 45.3633 33.4496 45.37C33.3201 45.3918 33.3197 45.2166 33.3587 45.1969C33.3983 45.1767 33.5758 45.0391 33.5758 45.0391L33.8318 44.8814L34.0481 44.7043L34.2255 44.5669L34.4619 44.4089L34.7175 44.2713L34.9143 44.1136L35.033 44.0349L35.1508 43.9559L35.2689 43.8575L35.4851 43.9168L35.6037 43.9958L35.5416 44.1476L35.3057 44.1875L35.1286 44.3056L34.8131 44.4827L34.5772 44.6404L34.3405 44.7974L34.1046 44.9159L34.0062 45.0144L33.8088 45.1716L33.6516 45.2902C33.6516 45.2902 33.4939 45.349 33.4549 45.349C33.4152 45.349 33.3168 45.3293 33.3168 45.3293C33.3168 45.3293 33.3168 45.2115 33.3559 45.1917C33.3955 45.1716 33.573 45.034 33.573 45.034L33.829 44.8763L34.0453 44.6992L34.2227 44.5617L34.4591 44.4038L34.7147 44.2662L34.9115 44.1085L35.0301 44.0298L35.148 43.9508L35.2661 43.8524L35.4823 43.9117L35.6009 43.9907L35.5387 44.1425L35.5444 44.1527ZM35.5444 44.1527L35.3085 44.1926L35.1314 44.3107L34.8159 44.4878L34.58 44.6455L34.3433 44.8025L34.1074 44.9211L34.009 45.0195L33.8116 45.1767L33.6545 45.2953C33.6545 45.2953 33.4968 45.3541 33.4577 45.3541C33.418 45.3541 33.3197 45.3344 33.3197 45.3344C33.3197 45.3344 33.3197 45.2166 33.3587 45.1969C33.3983 45.1767 33.5758 45.0391 33.5758 45.0391L33.8318 44.8814L34.0481 44.7043L34.2255 44.5669L34.4619 44.4089L34.7175 44.2713L34.9143 44.1136L35.033 44.0349L35.1508 43.9559L35.2689 43.8575L35.4851 43.9168L35.6037 43.9958L35.5416 44.1476L35.5444 44.1527ZM35.2448 41.5594L34.9293 41.7644L34.5951 41.9415L34.2796 42.0992L34.0828 42.2572L33.8072 42.4141L33.5908 42.5327L33.4136 42.6114L33.2168 42.6896C33.2168 42.6896 33.1378 42.6702 33.1575 42.6312C33.1777 42.5913 33.2362 42.4931 33.2362 42.4931C33.2362 42.4931 33.473 42.3947 33.4924 42.3554C33.512 42.3157 33.7681 42.2173 33.7875 42.1782C33.8072 42.1391 33.9844 41.9814 33.9844 41.9814C33.9844 41.9814 34.1227 41.9024 34.2211 41.8633C34.3195 41.8236 34.5163 41.6659 34.5163 41.6659C34.5163 41.6659 34.7528 41.5594 34.7724 41.5196C34.7918 41.4808 34.8115 41.4414 34.8709 41.3823C34.9293 41.3228 35.0286 41.2643 35.0286 41.2643C35.0286 41.2643 35.1464 41.2246 35.1854 41.2836C35.2253 41.343 35.2839 41.4017 35.2839 41.4017L35.2493 41.5605L35.2448 41.5594ZM35.2448 41.5594L34.9293 41.7644L34.5951 41.9415L34.2796 42.0992L34.0828 42.2572L33.8072 42.4141L33.5908 42.5327L33.4136 42.6114L33.2168 42.6896C33.2168 42.6896 33.1378 42.6702 33.1575 42.6312C33.1777 42.5913 33.2362 42.4931 33.2362 42.4931C33.2362 42.4931 33.473 42.3947 33.4924 42.3554C33.512 42.3157 33.7681 42.2173 33.7875 42.1782C33.8072 42.1391 33.9844 41.9814 33.9844 41.9814C33.9844 41.9814 34.1227 41.9024 34.2211 41.8633C34.3195 41.8236 34.5163 41.6659 34.5163 41.6659C34.5163 41.6659 34.7528 41.5594 34.7724 41.5196C34.7918 41.4808 34.8115 41.4414 34.8709 41.3823C34.9293 41.3228 35.0286 41.2643 35.0286 41.2643C35.0286 41.2643 35.1464 41.2246 35.1854 41.2836C35.2253 41.343 35.2839 41.4017 35.2839 41.4017L35.2493 41.5605L35.2448 41.5594ZM35.2493 43.3412L35.0525 43.4598L34.777 43.5973L34.3834 43.834L34.0874 44.0309L33.832 44.2082C33.832 44.2082 33.8298 44.2336 33.6937 44.2869C33.5023 44.3617 33.4174 44.3956 33.4174 44.3956C33.3661 44.4142 33.3001 44.2869 33.3392 44.247C33.3791 44.2082 33.536 44.0699 33.536 44.0699L33.7921 43.9518L34.1272 43.6763L34.3834 43.4795L34.6387 43.3412L34.8557 43.1843L35.0331 43.0859L35.1706 43.0266L35.2884 42.8689L35.3086 42.6132L35.1315 42.5931L34.9541 42.6526L34.6193 42.8891L34.1663 43.1649L33.9304 43.3412L33.753 43.4795C33.753 43.4795 33.5759 43.5779 33.5166 43.5779C33.4578 43.5779 33.3589 43.5946 33.3198 43.5973C33.1855 43.6081 33.1822 43.4989 33.1822 43.4989C33.2173 43.4008 33.3791 43.3218 33.3791 43.3218L33.9889 43.0069L34.2841 42.7704L34.5289 42.6046L34.777 42.4361L35.0129 42.3768L35.19 42.3377L35.2884 42.3572L35.4461 42.6914V43.0069L35.2493 43.3412V43.3412ZM35.2493 43.3412L35.0525 43.4598L34.777 43.5973L34.3834 43.834L34.0874 44.0309L33.832 44.2082C33.832 44.2082 33.8298 44.2336 33.6937 44.2869C33.5023 44.3617 33.4174 44.3956 33.4174 44.3956C33.3661 44.4142 33.3001 44.2869 33.3392 44.247C33.3791 44.2082 33.536 44.0699 33.536 44.0699L33.7921 43.9518L34.1272 43.6763L34.3834 43.4795L34.6387 43.3412L34.8557 43.1843L35.0331 43.0859L35.1706 43.0266L35.2884 42.8689L35.3086 42.6132L35.1315 42.5931L34.9541 42.6526L34.6193 42.8891L34.1663 43.1649L33.9304 43.3412L33.753 43.4795C33.753 43.4795 33.5759 43.5779 33.5166 43.5779C33.4578 43.5779 33.3589 43.5946 33.3198 43.5973C33.1855 43.6081 33.1822 43.4989 33.1822 43.4989C33.2173 43.4008 33.3791 43.3218 33.3791 43.3218L33.9889 43.0069L34.2841 42.7704L34.5289 42.6046L34.777 42.4361L35.0129 42.3768L35.19 42.3377L35.2884 42.3572L35.4461 42.6914V43.0069L35.2493 43.3412V43.3412ZM35.8429 45.9362L35.6267 45.8575H35.3706L35.1932 45.9362L35.0161 46.0354L34.7403 46.1924L34.4652 46.3504L34.0905 46.5863L33.8937 46.7046L33.7953 46.7634L33.5594 46.8421L33.5391 46.7836L33.6182 46.7046L33.7759 46.5863L33.9336 46.4682L34.3075 46.1729L34.6419 45.9565L34.9573 45.7793L35.1738 45.641L35.3509 45.5232L35.5572 45.3925L35.7446 45.4248L35.8631 45.72L35.8429 45.9362ZM35.8429 45.9362L35.6267 45.8575H35.3706L35.1932 45.9362L35.0161 46.0354L34.7403 46.1924L34.4652 46.3504L34.0905 46.5863L33.8937 46.7046L33.7953 46.7634L33.5594 46.8421L33.5391 46.7836L33.6182 46.7046L33.7759 46.5863L33.9336 46.4682L34.3075 46.1729L34.6419 45.9565L34.9573 45.7793L35.1738 45.641L35.3509 45.5232L35.5572 45.3925L35.7446 45.4248L35.8631 45.72L35.8429 45.9362ZM34.2003 55.5298C32.8951 55.8121 32.5721 55.7724 32.5721 55.7724L28.4766 55.9536C27.8309 55.9334 27.4951 55.8121 27.4951 55.8121L28.4766 55.6915C29.7265 55.7204 33.6964 55.1825 33.6964 55.1825L35.3701 54.9521L34.2003 55.5298ZM34.2003 55.5298C32.8951 55.8121 32.5721 55.7724 32.5721 55.7724L28.4766 55.9536C27.8309 55.9334 27.4951 55.8121 27.4951 55.8121L28.4766 55.6915C29.7265 55.7204 33.6964 55.1825 33.6964 55.1825L35.3701 54.9521L34.2003 55.5298ZM29.859 43.2445L29.8828 43.409L29.9534 43.5384L30.0707 43.6328L30.165 43.6678L30.3295 43.6913L30.5061 43.6328L30.6112 43.5147L30.6584 43.4325L30.6346 43.3505C30.6346 43.3505 30.6943 43.3155 30.5527 43.3155C30.4117 43.3155 30.3295 43.3268 30.3295 43.3268L30.165 43.3031L30.0828 43.2567L29.9884 43.2329H29.8828L29.859 43.2445V43.2445ZM29.859 43.2445L29.8828 43.409L29.9534 43.5384L30.0707 43.6328L30.165 43.6678L30.3295 43.6913L30.5061 43.6328L30.6112 43.5147L30.6584 43.4325L30.6346 43.3505C30.6346 43.3505 30.6943 43.3155 30.5527 43.3155C30.4117 43.3155 30.3295 43.3268 30.3295 43.3268L30.165 43.3031L30.0828 43.2567L29.9884 43.2329H29.8828L29.859 43.2445V43.2445ZM29.7141 42.8097L30.0039 42.8103C30.0039 42.8103 30.157 42.7989 30.192 42.7989H30.4972C30.556 42.7989 30.7911 42.7045 30.8148 42.7045C30.8383 42.7045 31.2974 42.4085 31.2974 42.4085L31.3964 42.2764L31.3325 42.0912L31.226 41.8351C31.226 41.8351 31.0615 41.7173 31.0262 41.7057C30.9906 41.6935 30.8383 41.6019 30.8383 41.6019L30.6738 41.4725L30.4501 41.3318L30.2622 41.1907L30.1333 41.0848L29.9095 41.0141L29.8273 41.0025L29.7688 40.9791L29.6515 41.0025L29.5571 41.0613L29.5747 41.1495L29.6219 41.2204L29.7391 41.2676L29.8685 41.3264L30.0214 41.3848L30.2096 41.4792L30.3853 41.5493L30.5269 41.6644L30.6442 41.8108L30.7156 41.9712L30.4959 42.0616L30.3417 42.0494L30.2506 41.9173L30.1684 41.8586L30.074 41.7528L29.9683 41.6936L29.8861 41.6698L29.7216 41.6822L29.5833 41.7528L29.5684 41.8809L29.5922 42.0109L29.6097 42.2233C29.6097 42.2233 29.7337 42.2349 29.7572 42.2349C29.7809 42.2349 29.9217 42.2578 29.9217 42.2578L30.074 42.2225C30.074 42.2225 30.1449 42.1874 30.1684 42.1874C30.192 42.1874 30.2999 42.1573 30.335 42.1573C30.37 42.1573 30.4994 42.1807 30.4994 42.1807L30.6712 42.3163L30.6477 42.4686L30.4617 42.5644H30.3436L30.1557 42.6116L30.0033 42.635L29.7486 42.6579L29.6555 42.7388L29.7141 42.8097V42.8097ZM29.7141 42.8097L30.0039 42.8103C30.0039 42.8103 30.157 42.7989 30.192 42.7989H30.4972C30.556 42.7989 30.7911 42.7045 30.8148 42.7045C30.8383 42.7045 31.2974 42.4085 31.2974 42.4085L31.3964 42.2764L31.3325 42.0912L31.226 41.8351C31.226 41.8351 31.0615 41.7173 31.0262 41.7057C30.9906 41.6935 30.8383 41.6019 30.8383 41.6019L30.6738 41.4725L30.4501 41.3318L30.2622 41.1907L30.1333 41.0848L29.9095 41.0141L29.8273 41.0025L29.7688 40.9791L29.6515 41.0025L29.5571 41.0613L29.5747 41.1495L29.6219 41.2204L29.7391 41.2676L29.8685 41.3264L30.0214 41.3848L30.2096 41.4792L30.3853 41.5493L30.5269 41.6644L30.6442 41.8108L30.7156 41.9712L30.4959 42.0616L30.3417 42.0494L30.2506 41.9173L30.1684 41.8586L30.074 41.7528L29.9683 41.6936L29.8861 41.6698L29.7216 41.6822L29.5833 41.7528L29.5684 41.8809L29.5922 42.0109L29.6097 42.2233C29.6097 42.2233 29.7337 42.2349 29.7572 42.2349C29.7809 42.2349 29.9217 42.2578 29.9217 42.2578L30.074 42.2225C30.074 42.2225 30.1449 42.1874 30.1684 42.1874C30.192 42.1874 30.2999 42.1573 30.335 42.1573C30.37 42.1573 30.4994 42.1807 30.4994 42.1807L30.6712 42.3163L30.6477 42.4686L30.4617 42.5644H30.3436L30.1557 42.6116L30.0033 42.635L29.7486 42.6579L29.6555 42.7388L29.7141 42.8097V42.8097ZM28.1888 42.2507C28.48 42.2507 28.6525 42.2291 28.8796 42.1968C28.8904 42.0668 28.9484 41.2574 28.9484 41.2574V40.839L29.0185 40.4907L29.2274 40.2467C29.2274 40.2467 29.3668 40.107 29.5065 40.107C29.6459 40.107 29.9249 40.1413 29.9249 40.1413L30.4137 40.1763L30.762 40.351L31.4018 40.6031L31.8283 41.2021L31.9423 41.4038L32.2403 41.5265C32.3095 41.5481 32.5786 41.6473 32.5786 41.6473C32.5104 41.5675 31.8608 40.5085 31.7635 40.3919C31.7635 40.3919 31.5775 40.2417 31.5034 40.2606C31.2481 40.1366 31.0809 40.1285 31.0809 40.1285L30.5228 39.8845L30.1392 39.6755L29.7328 39.6041H29.333L28.9408 39.6297L28.5229 39.6796L28.4042 39.8521L28.5445 40.2625L28.6199 40.5652V41.332L28.5014 41.7747L28.1886 42.25L28.1888 42.2507ZM28.1888 42.2507C28.48 42.2507 28.6525 42.2291 28.8796 42.1968C28.8904 42.0668 28.9484 41.2574 28.9484 41.2574V40.839L29.0185 40.4907L29.2274 40.2467C29.2274 40.2467 29.3668 40.107 29.5065 40.107C29.6459 40.107 29.9249 40.1413 29.9249 40.1413L30.4137 40.1763L30.762 40.351L31.4018 40.6031L31.8283 41.2021L31.9423 41.4038L32.2403 41.5265C32.3095 41.5481 32.5786 41.6473 32.5786 41.6473C32.5104 41.5675 31.8608 40.5085 31.7635 40.3919C31.7635 40.3919 31.5775 40.2417 31.5034 40.2606C31.2481 40.1366 31.0809 40.1285 31.0809 40.1285L30.5228 39.8845L30.1392 39.6755L29.7328 39.6041H29.333L28.9408 39.6297L28.5229 39.6796L28.4042 39.8521L28.5445 40.2625L28.6199 40.5652V41.332L28.5014 41.7747L28.1886 42.25L28.1888 42.2507ZM32.1295 27.4663C31.8086 27.3925 31.5094 27.3472 31.5094 27.3472C31.4549 27.3544 32.2493 26.9945 33.6876 27.4421C33.962 27.5278 33.9572 27.1571 33.9572 27.1571C33.9122 26.8794 33.2221 26.5262 33.2629 26.5761C32.4091 26.3289 31.5774 26.444 31.5774 26.444L32.6914 25.1389C32.6914 25.1389 32.9618 25.0914 32.9942 25.0914C33.0265 25.0914 33.5892 24.9782 34.0515 25.1084C34.4945 25.2338 35.0571 26.1975 35.0571 26.1975L35.3411 26.5906C35.8749 27.445 35.7293 26.5763 35.7293 26.5763C35.7293 26.5763 35.6808 26.3477 35.6646 26.3154C35.44 25.5603 35.0998 25.1317 34.8798 24.8121C34.71 24.5657 34.0564 24.5205 34.0564 24.5205C32.7313 24.666 34.6962 24.0836 35.2719 24.3713C35.3039 24.3878 35.5657 24.7963 35.5657 24.7963L36.3987 26.9683C36.4949 27.1589 36.6216 27.3274 36.7537 27.4698L35.7764 27.4662C35.7544 27.4652 35.7328 27.4595 35.7118 27.4563C35.4753 27.4091 35.2175 27.4231 34.994 27.4652L32.1283 27.4662L32.1295 27.4663ZM38.6476 27.4663C38.698 27.4145 38.7487 27.3579 38.8005 27.2954C38.9698 27.1 39.0129 27.0339 39.0129 27.0339C39.3876 26.9792 39.8943 26.9805 39.5252 27.4663H38.6473H38.6476ZM32.808 25.9444C32.884 25.9642 33.0619 25.9534 33.0619 25.9534C34.2215 26.0375 34.3043 26.7457 34.3043 26.7457C34.3358 26.9026 34.8697 27.46 34.8548 26.4604C34.5995 25.4459 33.4469 25.4666 33.4469 25.4666C32.9764 25.4698 32.7588 25.6806 32.7588 25.6806C32.7588 25.6806 32.6577 25.8723 32.8033 25.9448L32.808 25.9444ZM34.9981 27.4701C34.7285 27.5186 34.508 27.6076 34.4324 27.6763C34.3933 27.6763 33.5097 28.1719 33.1487 28.6357C33.1487 28.6357 32.2522 29.642 32.2038 30.1147C32.2038 30.1147 32.1904 30.29 32.34 30.3484C32.34 30.3484 32.4538 30.3695 32.4775 30.3606C32.5751 30.263 33.072 29.2163 33.4182 28.945C33.4182 28.945 34.7027 27.8663 35.6006 28.3023L36.297 28.7981C36.297 28.7981 36.5113 28.9256 36.6482 28.9329C36.7851 28.9403 37.0998 28.9572 37.4557 28.844C37.4557 28.844 37.9375 28.772 37.5304 28.5558L37.2966 28.4579L37.0823 28.3805C36.8801 28.3244 36.5854 28.1015 36.2161 27.6765C36.2161 27.6765 35.9716 27.5283 35.7807 27.4752L36.758 27.4703C37.0694 27.8108 37.4091 28.0015 37.432 28.0015C37.4624 28.0015 37.9887 28.1626 38.6515 27.4711L39.5295 27.4703C39.5084 27.4981 39.4855 27.5264 39.4593 27.5566L38.7395 27.92C38.7395 27.92 38.1868 28.263 38.1518 28.6061C38.1976 29.0451 38.8082 28.6169 38.8082 28.6169C39.0191 29.1826 38.5103 29.472 38.5103 29.472C38.3081 29.3578 37.5144 29.4553 37.5144 29.4553C36.8957 29.6131 36.4198 30.158 36.4198 30.158C36.1124 30.5434 35.8037 30.7802 35.5563 30.9234L34.7599 30.9207C35.5136 30.7409 35.4652 30.5859 35.5343 30.4249C35.5343 30.4249 35.599 30.2413 35.3744 30.3046C35.3253 30.3189 34.5414 30.4516 34.4758 30.4516C34.4103 30.4516 34.2957 30.4681 34.2957 30.4681C34.2957 30.4681 34.833 30.0852 36.2082 29.9989C36.4446 29.6126 36.4015 29.6768 36.1422 29.5201C36.1422 29.5201 35.5881 29.3678 35.3084 29.4549C34.7466 29.573 34.3284 29.994 34.3284 29.994L33.7398 30.4839L33.1138 30.859C33.1138 30.859 33.2082 30.5772 33.2208 30.5575C33.5861 30.0202 34.655 29.4228 34.655 29.4228L35.276 29.1775C35.6628 28.7318 34.7368 28.8181 34.7368 28.8181C33.6511 28.8176 32.8746 30.0432 32.8746 30.0432C32.8746 30.0432 32.5457 30.8424 32.4993 30.8921C32.4945 30.9023 32.4899 30.9123 32.485 30.9225L31.6251 30.9204C31.5482 30.7964 31.5024 30.6845 31.5024 30.6799C31.5024 30.6637 31.2902 30.533 31.2579 30.533C31.2247 30.533 30.9632 30.4678 30.9632 30.4678C29.8989 30.3923 29.4917 30.7532 29.2701 30.9225L28.4323 30.9204C28.555 30.7029 28.6539 30.5815 28.6601 30.5815C29.0233 30.2903 29.2484 30.08 29.6077 29.9938C29.6077 29.9938 30.1725 29.7681 31.6168 29.863C31.9026 29.6433 31.6007 29.4546 31.6007 29.4546C31.6007 29.4546 30.8325 29.2079 29.2969 29.3894C29.0434 29.4538 28.931 29.2457 28.931 29.2457C28.914 29.1958 29.5794 28.3015 29.6117 28.3015C29.6446 28.3015 31.0929 27.934 32.5119 28.2589C33.2952 28.4374 32.9715 27.7601 32.8947 27.7407C32.8321 27.638 32.47 27.5382 32.1328 27.4649L34.9984 27.4695L34.9981 27.4701ZM36.1175 30.921C36.4675 30.649 36.7619 30.4196 36.7619 30.4196C37.2202 30.171 38.1837 30.3543 38.1837 30.3543C38.1904 30.3651 38.102 30.6288 38.003 30.9165L36.1175 30.921H36.1175ZM29.5891 29.0686C30.2167 29.0452 30.4856 28.9904 30.4856 28.9904C30.9394 28.9424 31.5961 29.1069 31.5961 29.1069C31.8019 29.18 32.2197 29.1853 32.2197 29.1853C32.6484 29.0991 32.3753 28.7173 32.3753 28.7173C31.8019 28.3118 30.8948 28.3668 30.8948 28.3668C29.7747 28.3331 29.433 28.9122 29.433 28.9122C29.3921 28.9451 29.3921 29.0883 29.5894 29.0686H29.5891ZM34.8114 67.3462L34.1878 67.3335L34.2776 64.9227C34.2902 63.6369 33.8731 62.5858 33.8731 62.5858L33.387 61.4111L32.9004 60.52L32.4547 59.5483C32.2083 59.0927 32.1765 58.5648 32.1765 58.5648L32.1967 58.2622C32.2098 57.4968 31.6115 57.5355 31.6115 57.5355L29.0888 57.0111L27.7802 56.8973C24.9084 56.9297 25.3411 53.6618 25.3411 53.6618C25.4045 53.2215 25.7056 52.8791 25.7056 52.8791L26.0299 52.3121C26.2335 51.9139 25.7919 51.5218 25.7919 51.5218L25.4489 51.3431C25.2096 51.232 25.3411 50.6115 25.3411 50.6115L25.4193 50.3801L25.5164 50.0243C25.5352 49.828 25.3411 49.6387 25.3411 49.6387C25.1821 49.3772 25.3411 48.7884 25.3411 48.7884L25.3816 48.0472L25.3411 47.6823C25.3411 47.6823 25.3155 47.2702 25.3155 47.3106C25.3155 47.3511 25.2999 47.2712 25.2999 47.2712L24.8423 47.2887C23.4178 47.3279 23.4675 45.916 23.4675 45.916C23.5314 45.3573 24.2094 44.6653 24.2094 44.6653L24.8956 43.4699L25.7059 42.2821L26.6031 41.0688C26.9051 40.6773 26.8215 39.8541 26.8215 39.8541L26.8121 39.2847C26.8027 38.5627 27.0547 38.3529 27.0547 38.3529L27.5009 37.6234C27.5009 37.6234 27.9126 36.5902 27.9337 36.5557C28.2159 36.0866 28.4027 34.0724 28.2617 33.8785C28.4014 33.9453 27.2044 33.3263 27.1347 33.0509C26.8281 31.1564 27.3383 30.1853 27.3383 30.1853L28.5944 29.092L29.5303 27.9698C30.7036 26.1822 31.8189 26.138 31.8189 26.138C32.1281 25.3712 33.1317 24.5969 33.1317 24.5969C33.1317 24.5969 34.1704 23.8922 36.0601 24.1773C36.6182 24.1917 36.7945 24.7201 36.7945 24.7201C36.7945 24.7201 37.0156 26.3689 37.8194 26.7278C38.8519 27.4153 39.4351 26.6612 39.4351 26.6612C39.8536 26.4703 40.0086 26.9583 39.4419 27.1419C39.2828 27.1729 38.8272 27.2282 38.8272 27.2282C37.3046 27.5442 36.874 26.3234 36.874 26.3234L36.4251 25.1908C36.2571 24.4971 35.3712 24.5424 35.3712 24.5424L34.1564 24.6233C33.8801 24.6174 33.6231 24.6713 33.3876 24.7856C33.0446 25.0242 32.6988 25.5958 32.6988 25.5958L32.496 25.8792L32.1725 26.2567L31.8759 26.4586L31.5119 26.6203C31.5119 26.6203 30.6913 26.9587 29.8362 28.0842C29.5833 28.5582 29.2606 29.0118 28.9189 29.457L28.1086 30.0642C27.1693 30.8033 27.3874 31.8007 27.3874 31.8007L27.4197 32.6696C27.4453 32.9257 27.891 33.1743 28.4736 33.3984C28.7114 33.5165 28.7572 33.8036 28.7572 33.8036L28.7976 34.5332L28.6764 35.8694L28.4332 36.8418L28.0684 37.826L27.716 38.4981C27.4586 38.9799 27.5421 39.4106 27.5421 39.4106V40.3382C27.5615 40.9469 26.7712 41.5632 26.7712 41.5632L26.112 42.4039L25.3017 43.7939L25.0179 44.1587C24.5333 44.65 23.8998 45.7862 23.8998 45.7862C23.9294 46.1399 23.6409 46.7787 24.7625 46.7352C24.9647 46.7271 25.7129 46.6529 25.7129 46.6529C26.324 46.7365 26.7592 46.9967 26.7592 46.9967C27.0539 47.4056 27.5467 47.2731 27.6923 47.2259C27.9295 47.1485 28.0495 47.1131 27.8203 46.4998C27.7753 46.3785 27.6114 45.938 27.6114 45.938L27.7066 45.8496C27.7066 45.8496 28.2922 46.695 28.3353 47.2989C27.6237 47.7522 27.2703 47.6147 27.2703 47.6147L26.5456 47.3208L25.9849 47.2346C25.5072 46.9943 25.7902 47.1483 25.7902 47.1483C26.0922 47.5365 25.8409 48.568 25.8409 48.568L25.7722 48.9454C25.7722 48.9454 25.704 49.2191 25.9709 49.2501C26.1717 49.2738 26.2917 49.2852 26.3478 49.2986C26.43 49.318 26.5365 49.4037 26.5675 49.4523C26.8735 49.9174 27.0372 49.7677 27.0372 49.7677C27.0372 49.7677 27.4294 49.7483 27.5543 49.744C27.6581 49.7407 27.8109 50.1587 27.4874 50.1587C27.1086 50.1843 26.8907 50.1883 26.8907 50.1883C26.7886 50.187 26.4503 49.9341 26.4503 49.9341C25.7687 49.6402 25.3812 51.4566 26.2831 51.2399C26.5114 51.4367 26.6633 52.1413 26.6633 52.1413C26.6646 52.4715 25.9123 53.2994 25.9123 53.2994C25.9123 53.2994 25.7241 53.6868 25.8684 54.5521C25.9789 55.6012 26.9057 56.3341 28.636 56.3341C29.4587 56.3665 30.7424 56.4563 30.7825 56.4563C30.8229 56.4563 31.8633 56.4927 31.9572 56.4968C34.4494 56.6068 37.469 53.8948 37.469 53.8948L39.7687 51.4667C40.757 50.606 40.6576 51.4082 40.6576 51.4082C41.1922 51.6118 39.8701 52.921 39.8701 52.921C39.9712 52.8604 36.8947 54.9474 36.8947 54.9474C35.6724 55.737 35.6559 56.2132 35.6559 56.2132C35.5634 57.1381 35.5466 57.174 35.5466 57.174C35.5466 57.174 34.1773 58.094 33.9509 58.0367C33.7938 57.9976 35.1456 56.9138 35.1456 56.9138C35.3896 56.3827 34.8054 56.605 34.6922 56.6477C33.8032 57.2217 32.6409 57.192 32.6409 57.192L32.618 57.8741C32.7037 59.0467 33.1446 59.8715 33.1446 59.8715L33.7525 60.924L34.1569 61.7743C34.6961 62.7558 34.8457 64.0436 34.8457 64.0436L34.812 67.3455L34.8114 67.3462ZM35.6886 44.9421C35.6487 44.9224 35.4325 44.8825 35.4325 44.8825L35.2747 44.9809L34.9795 45.1785L34.8218 45.2769L34.5069 45.4544L34.3101 45.5722L34.1524 45.7493L33.9947 45.8278L33.7588 45.9064L33.6011 45.9658C33.5701 46.0075 33.4636 45.9658 33.4636 45.9658C33.4636 45.9658 33.4433 45.8868 33.5223 45.8471C33.6011 45.8081 33.7191 45.7493 33.7784 45.7097C33.8377 45.6705 34.2314 45.3357 34.2314 45.3357L34.763 44.9421L35.2159 44.6663C35.2159 44.6663 35.5309 44.5085 35.5699 44.5085C35.6096 44.5085 35.6886 44.3118 35.6886 44.3118L35.8657 44.253L36.1609 44.4889C36.1609 44.4889 36.1016 44.6272 36.0822 44.686C36.0625 44.745 35.9641 44.9027 35.9641 44.9027C35.9641 44.9027 35.7276 44.9615 35.6886 44.9421V44.9421ZM38.9324 52.8309L37.2236 53.1743L35.4905 53.5135L33.2246 53.8551C32.7757 53.9252 32.297 53.8551 32.297 53.8551C32.1285 53.8883 32.173 53.7934 32.173 53.7934C32.1784 53.7017 32.359 53.6065 32.421 53.6065C32.483 53.6065 32.7316 53.5756 32.7316 53.5756C33.0438 53.589 34.4971 53.3585 34.4971 53.3585L36.2039 53.0476C36.2039 53.0476 37.5077 52.7411 37.663 52.7101C37.818 52.6791 39.1179 52.369 39.1179 52.369L38.9313 52.8309H38.9324ZM35.7993 54.232L34.0435 54.5954L31.7189 54.8933C31.7189 54.8933 30.4807 54.9397 30.4455 54.9486C30.3247 54.9783 30.1194 54.9055 30.1194 54.9055C30.1099 54.8103 30.1503 54.8008 30.1503 54.8008C30.1503 54.8008 30.2978 54.7645 30.353 54.7645C30.4083 54.7645 31.701 54.6534 31.701 54.6534L34.4272 54.2724L36.2424 53.8487L37.0313 53.6553L35.7993 54.232V54.232ZM29.2701 30.9107C29.2445 30.933 29.2211 30.9506 29.1995 30.9641C28.6447 31.3375 28.3016 32.0946 28.3016 32.0946L28.1937 32.9753C28.3461 33.3177 28.7578 33.0063 28.7578 33.0063C28.7631 33.0063 28.8386 32.438 29.0746 32.1587C29.2331 31.8905 29.6483 31.5306 30.4708 31.3208C30.8443 31.25 31.0006 31.182 31.0513 31.192C31.4854 31.275 31.2243 31.6004 31.2243 31.6004C31.143 31.6565 30.3423 31.8296 30.3423 31.8296C29.3967 31.9868 29.2249 32.9319 29.2249 32.9319C29.1925 33.7573 28.7611 34.3612 28.7611 34.3612C28.5891 33.5234 28.0863 33.2763 28.0863 33.2763C27.9577 32.9751 27.9407 32.6791 27.9407 32.6791C27.9582 31.8998 28.2287 31.2718 28.4322 30.9101L29.2701 30.9107H29.2701ZM32.485 30.9107C32.1534 31.599 31.8043 31.2134 31.6251 30.915L32.485 30.9107ZM35.5557 30.9107C35.2505 31.0913 35.0394 31.1272 35.0394 31.1272L33.4623 31.5365C33.4623 31.5365 33.4138 31.634 33.43 31.6502C33.4462 31.6663 33.7583 32.5888 34.9843 31.7815C35.018 31.7612 35.6227 31.2935 36.1183 30.9098L38.0039 30.9108C37.8818 31.2602 37.7437 31.6507 37.7437 31.6507C38.0125 31.4507 36.6657 32.3699 36.6657 32.3699L36.0847 32.7338C35.117 33.4875 34.0521 33.2846 34.0521 33.2846C33.5404 33.2798 33.2349 33.0069 33.2349 33.0069L33.0548 32.8762C33.9272 33.0177 34.6353 33.0703 35.1357 32.8093C35.1685 32.8093 36.5588 32.1949 37.3677 31.1604C37.3475 30.7631 36.6161 31.03 36.6161 31.03L36.1262 31.2912C35.7359 31.4287 34.5326 32.4818 34.5326 32.4818C34.3393 32.6323 34.0603 32.5249 34.0603 32.5249C33.6302 31.9663 32.9077 31.8631 32.9077 31.8631L32.3855 31.8962C31.8899 32.0526 31.9762 31.7731 31.9762 31.7731C31.9762 31.7731 32.2337 31.4077 33.8452 31.0856C34.2381 31.0254 34.5347 30.968 34.7597 30.9135L35.5562 30.9114L35.5557 30.9107ZM44.149 38.738L43.8182 38.8157L43.6052 38.9128L43.2372 39.1257L42.7915 39.3967L42.2685 39.7067L41.7072 39.9782L41.3195 40.1915L40.8162 40.4428L40.4872 40.5978L40.0612 40.7528L39.7895 40.8687L39.5186 40.9461L39.2282 40.9658L38.9955 40.9855L38.8022 40.9461L38.8602 40.8305C38.8602 40.8305 38.9955 40.7725 39.0926 40.7528C39.1896 40.7332 39.6542 40.6369 39.6542 40.6369L40.3706 40.4045L40.9327 40.1327L41.7264 39.6685L42.5587 39.2032L43.0041 38.9707L43.4301 38.7195C43.4301 38.7195 43.6242 38.6027 43.6628 38.5839C43.7018 38.5645 43.7792 38.4868 43.7981 38.4477C43.8178 38.4094 43.8757 38.1965 43.8757 38.1965L44.0132 38.2935L44.1103 38.4868L44.1486 38.738H44.149ZM44.3008 39.5663H44.0495L43.873 39.7216L43.66 39.9148L43.4664 40.0502L43.176 40.2249L42.7695 40.4576L42.343 40.6706L41.9364 40.845L41.4134 41.0768L41.026 41.2516L40.6391 41.4066L40.4644 41.4448L40.3673 41.3486L40.4261 41.213L40.7353 41.0768L41.123 40.9412L41.8588 40.5732L42.5945 40.2052L43.137 39.8569L43.5044 39.6439L43.6788 39.528L43.8535 39.4309L44.0873 39.2562L44.2814 39.2179L44.3003 39.5663H44.3008ZM44.3831 40.2772L44.2087 40.3157L43.9181 40.509L43.6263 40.6837L43.2966 40.9355L43.0257 41.0711L42.3867 41.4001L41.8637 41.6152L41.6696 41.7506L41.3792 41.8282L41.2242 41.7702L41.3792 41.5955L41.6313 41.4775L42.3093 41.1291L42.7353 40.8965L43.4517 40.4511L44.0731 40.0448L44.2478 39.928L44.3638 40.0251L44.3832 40.2772H44.3831ZM44.6178 41.1054L44.4237 41.2027L44.1721 41.338L43.9591 41.4539L43.7826 41.551L43.5507 41.6885L43.3372 41.7662L43.0662 41.8818L42.8532 41.9397L42.6206 42.0174C42.6206 42.0174 42.5243 42.0948 42.4852 42.0174C42.4467 41.9397 42.4467 41.9015 42.4467 41.9015C42.4467 41.9015 42.5243 41.8435 42.5823 41.8241C42.6403 41.8044 42.9306 41.6494 42.9306 41.6494L43.3763 41.4157L43.7443 41.2027L44.0368 41.0477L44.2498 40.9121L44.4431 40.8347L44.6178 40.9121V41.1054V41.1054ZM40.9736 48.8078L40.7162 48.9825L40.3711 49.2203L39.9674 49.4255L39.6701 49.5654L39.4113 49.6727L39.0608 49.8061L38.589 49.918L37.9527 49.9782L37.4755 50.0048C37.4755 50.0048 36.7934 50.1687 37.4593 50.2772C37.4911 50.282 37.8475 50.2556 37.8475 50.2556L38.3544 50.2011C38.864 50.18 39.4435 49.9321 39.4649 49.9321C39.4865 49.9321 40.1551 49.6511 40.1551 49.6511L41.2656 48.9181L42.1208 48.1424C42.2933 47.8188 40.973 48.8075 40.973 48.8075L40.9736 48.8078ZM47.2813 43.3412L47.0985 43.6216L46.9254 43.9235L46.5161 44.4412L46.0195 45.0346L45.2652 45.9933L44.7799 46.5654L44.4564 46.9536L43.7552 47.7514L43.4532 48.0647L42.7846 48.722L42.4503 49.0568L41.9111 49.5421C41.0677 50.2247 40.8082 50.244 40.8082 50.244C40.4982 50.2845 40.203 50.2845 40.203 50.2845C40.203 50.2845 40.5419 50.0394 40.5634 50.0394C40.585 50.0394 40.8222 49.9312 40.8222 49.9312L41.1027 49.769L41.4261 49.543L41.836 49.2303L42.1595 48.9283L42.8924 48.2161L43.3669 47.7523L43.7768 47.3102L44.3483 46.6631L44.9091 46.0269L45.3405 45.4882L46.128 44.475L46.8989 43.3452C46.8989 43.3452 46.9649 43.2149 46.9816 43.2019C47.3438 42.9246 47.2812 43.3422 47.2812 43.3422L47.2813 43.3412ZM47.8748 44.0038L47.7454 44.2084L47.3572 44.7152L47.0984 45.1035L46.7209 45.6642L46.3866 46.0843L46.0631 46.4618L45.7395 46.8824L45.3405 47.3245L44.9415 47.7559L44.5857 48.123L44.219 48.49L43.8524 48.8351L43.5396 49.137L42.7652 49.9453L42.2804 50.0059L42.8924 49.4173L43.2267 49.1046L43.7767 48.6296L44.1002 48.3282L44.4777 47.9938L44.7041 47.7561L44.8875 47.5511L45.1786 47.2277L45.4914 46.8502L45.7502 46.4943L46.2031 45.912L46.4835 45.5782L46.9575 44.8556L47.4541 44.0142L47.6266 43.6691L47.8854 43.8312L47.8747 44.0037L47.8748 44.0038ZM48.4684 44.6595L48.1987 44.7784L47.7992 45.4144L47.0227 46.8051L45.7445 48.5982C45.2808 49.3857 44.7755 49.5873 44.7755 49.5873C44.4844 49.6412 43.6933 49.8428 43.6933 49.8428L44.5104 49.2422C44.9984 48.9873 45.7183 48.1213 45.7183 48.1213L46.3006 47.398L46.7638 46.7509L47.1197 46.1902L47.5402 45.5116C47.627 45.4482 47.9284 44.185 47.9284 44.185L48.1123 44.2177L48.2633 44.3471L48.3814 44.487L48.4682 44.6595L48.4684 44.6595ZM51.788 45.046L51.6275 45.1411L51.5103 45.2948L51.3574 45.4479L51.2474 45.572L51.0506 45.7693L50.926 45.9006L50.7945 46.0537L50.6268 46.2363L50.5101 46.3538L50.444 46.4263L50.3415 46.5067C50.2224 46.5908 50.1448 46.529 50.1448 46.529C50.1172 46.4101 50.2399 46.3098 50.2399 46.3098L50.3348 46.171L50.4664 46.0246L50.5977 45.8933L50.7877 45.6892L50.9482 45.4916L51.0722 45.3528L51.1671 45.236L51.2914 45.1263L51.3062 45.0319L51.2771 44.922C51.2771 44.922 51.379 44.8931 51.3939 44.8931C51.4086 44.8931 51.5178 44.9074 51.5178 44.9074L51.5912 44.9295L51.6783 44.9511L51.788 45.046V45.046ZM52.5748 45.3911L52.4948 45.4935L52.4072 45.5959L52.1295 45.844L51.8375 46.0847L51.4946 46.3697L51.2681 46.5598L50.9828 46.8302L50.6836 47.0931L50.4283 47.3411L50.2455 47.5021L50.0702 47.6627L49.8653 47.8452L49.7265 47.9477L49.5952 48.0056L49.4564 47.9841L49.4272 47.8817L49.5373 47.75L49.7926 47.546L50.0406 47.3484L50.3474 47.0642L50.6615 46.7569L50.9612 46.4433L51.2754 46.1292L51.5962 45.8291L51.903 45.5159L52.1368 45.2158L52.2467 45.1942H52.3781L52.4656 45.2382L52.5748 45.3911V45.3911ZM50.5664 48.9731C50.6338 49.0292 50.5941 49.1101 50.5941 49.1101L50.3844 49.3897L48.9743 50.514L48.636 50.7871L48.2513 51.1012L47.9372 51.381L47.7275 51.5555C47.6676 51.604 47.6096 51.604 47.5531 51.5555C47.5504 51.4565 47.6924 51.3457 47.6924 51.3457C47.7552 51.281 48.2168 50.9618 48.2168 50.9618L48.6705 50.5773L49.1248 50.2285L49.7212 49.7742L50.0352 49.5294L50.28 49.2849L50.3844 49.1633C50.4936 48.9147 50.5664 48.9732 50.5664 48.9732V48.9731ZM53.6653 45.964L53.3512 46.2085L53.0717 46.4183L52.6524 46.6978L52.0936 47.0823L51.57 47.5034L51.0105 47.9927L50.3816 48.4821L49.8229 48.8662L49.3314 49.285L48.9824 49.5995C48.8402 49.653 48.6677 49.6697 48.6677 49.6697C48.5922 49.6594 48.6138 49.5354 48.6138 49.5354C48.7176 49.4391 48.8206 49.3677 48.8206 49.3677L49.157 49.1102L49.5781 48.8312L49.9974 48.5163L50.4867 48.1321L50.8709 47.8183L51.3252 47.4338L51.7093 47.0823L52.2332 46.628L52.8969 45.964L53.1417 45.6148L53.3512 45.4752H53.5953L53.7705 45.5798L53.6653 45.964Z" fill="#73614F"/>
<path d="M77.439 61.8963L77.8469 61.019L81.8196 62.8715L81.1177 64.3782L80.54 64.1091L80.3619 64.4906L81.558 65.0487L81.7361 64.6671L81.5297 64.5709L83.3007 60.7735L83.5071 60.8701L83.6803 60.4988L82.4828 59.9408L82.3096 60.312L82.888 60.5816L82.1861 62.0876L78.2134 60.2351L78.6226 59.3572L78.2403 59.1793L77.0566 61.7178L77.439 61.896V61.8963ZM79.8546 56.3814L79.9726 55.9064L85.3402 55.0851L85.4113 54.798L81.0804 51.4658L81.1846 51.046L80.7767 50.9441L80.3909 52.4901L80.7995 52.5918L80.9534 51.9738L82.028 52.7924L81.5269 54.8029L80.1983 54.9997L80.3198 54.5139L79.9112 54.412L79.4488 56.2679L79.8546 56.3808V56.3814ZM86.2105 56.8163C86.5204 56.8937 86.8379 56.7031 86.9117 56.4044C86.989 56.0951 86.7986 55.7775 86.4894 55.7004C86.1905 55.6266 85.873 55.8172 85.7964 56.1264C85.7226 56.4243 85.913 56.7419 86.2105 56.816V56.8163ZM86.6985 54.861C87.0077 54.9387 87.3252 54.7478 87.3997 54.4493C87.4763 54.1407 87.2858 53.823 86.9766 53.7453C86.6785 53.6712 86.361 53.8618 86.2837 54.1713C86.2091 54.4692 86.4003 54.7865 86.6985 54.8607V54.861ZM82.4117 53.0886L84.1469 54.4131L82.0018 54.7344L82.4117 53.0883V53.0886ZM81.4455 47.8636L81.4793 46.8967L85.8592 47.0499L85.8012 48.7111L85.1642 48.689L85.1497 49.1093L86.4693 49.1559L86.4845 48.7349L86.2561 48.7273L86.4031 44.5406L86.6295 44.5487L86.6446 44.1389L85.325 44.0923L85.3098 44.5021L85.9476 44.5245L85.8896 46.1851L81.5097 46.0327L81.5428 45.0658L81.1218 45.0509L81.0245 47.8496L81.4455 47.8642V47.8636ZM81.3075 41.2308L81.1887 40.3847L85.5286 39.7748L85.648 40.6203L86.0987 40.5569L85.7412 38.0095L85.2898 38.0728L85.4085 38.9183L81.068 39.5284L80.9492 38.683L80.5324 38.7417L80.8906 41.2892L81.3075 41.2307V41.2308ZM79.1679 32.7621C79.0664 33.2618 79.0747 33.6904 79.2079 34.1018C79.4999 35.0011 80.335 35.4711 81.1473 35.2082C81.8513 34.9787 82.1129 34.6069 82.3303 33.5069C82.3869 33.2373 82.4539 32.9281 82.5243 32.5937C82.6216 32.1556 82.7348 31.9871 83.0164 31.8953C83.4601 31.751 83.8508 31.995 84.0157 32.5037C84.111 32.7963 84.12 33.0092 84.0302 33.5059L83.4884 33.6817L83.6189 34.0821L84.9178 33.6601L84.7874 33.2592L84.5168 33.3474C84.5879 32.9767 84.5617 32.6385 84.4457 32.281C84.1641 31.4148 83.3255 30.9331 82.5456 31.1864C81.9079 31.394 81.6339 31.8421 81.4669 32.9498C81.304 33.9961 81.1176 34.3799 80.7063 34.5138C80.2839 34.6512 79.8546 34.3601 79.6786 33.8181C79.5585 33.4501 79.5578 33.1155 79.6766 32.5978L80.2404 32.4144L80.11 32.0141L78.7565 32.4536L78.887 32.8544L79.1679 32.7628V32.7621ZM78.2016 29.6562L78.047 29.3772C77.9256 29.158 77.9407 28.9027 78.096 28.5959L78.9367 26.9188C79.4205 27.5097 80.1348 27.6469 80.8015 27.2779C81.6084 26.8303 81.7499 26.0756 81.2136 25.11L79.9112 22.7606L79.513 22.9809L79.9271 23.7276L76.0938 25.8527L75.6797 25.1059L75.3118 25.31L76.5583 27.56L76.9269 27.3557L76.5134 26.6089L78.1657 25.693L78.4363 26.1807L77.4238 28.1346C77.1829 28.5934 77.1877 28.6954 77.4307 29.1333L77.8338 29.8601L78.2016 29.656V29.6562ZM80.3467 24.4847L80.7325 25.1818C81.0196 25.6994 80.8657 26.1494 80.3081 26.4586C79.7607 26.7624 79.221 26.6581 78.956 26.1804L78.564 25.473L80.3467 24.4846V24.4847ZM74.2041 21.8688L73.9225 21.556L73.4746 21.9599L72.1791 20.5216L73.6595 19.1888L74.6341 20.2717L74.2117 20.6527L74.4933 20.9655L75.6693 19.9067L75.3788 19.601L74.9736 19.9674L73.9984 18.8839L75.4105 17.6112L76.6604 18.9991L76.2201 19.3953L76.4948 19.7003L77.4424 18.8473L77.1608 18.5332L76.991 18.6858L74.5996 16.0299L74.2855 16.3115L74.8577 16.9465L71.5752 19.9019L71.0037 19.2669L70.6903 19.5492L73.418 22.5777L74.2041 21.8696V21.8688ZM20.9357 16.4447L20.6405 16.7298L21.1231 17.2295L19.7475 18.5581L16.7266 15.4302L17.3407 14.8366L17.0245 14.5088L15.1734 16.2964L15.4896 16.6242L16.1035 16.0306L19.1486 19.1834L18.5339 19.7763L18.8272 20.0799L21.7343 17.2723L20.9357 16.4447H20.9357ZM15.2693 24.7684C16.0927 23.593 15.7474 21.8227 14.526 20.9675C13.323 20.1255 11.5506 20.413 10.7279 21.5885C9.89211 22.7818 10.2184 24.539 11.4305 25.3879C12.6618 26.25 14.4342 25.9625 15.2693 24.7687V24.7684ZM11.113 21.8717C11.6617 21.0883 12.9358 21.0359 13.9801 21.767C15.0333 22.5041 15.4267 23.7106 14.8711 24.5036C14.323 25.2863 13.0456 25.3236 11.9923 24.5855C10.9571 23.8608 10.565 22.6551 11.113 21.8717V21.8717ZM11.5962 31.2306C11.9836 30.2202 11.7401 29.4569 10.9222 29.1428C10.1244 28.8371 9.42244 29.238 8.99867 30.2457C9.29655 29.47 9.05581 28.7315 8.41822 28.4865C7.6742 28.2007 6.97574 28.591 6.62857 29.4948L5.63264 32.0878L6.02542 32.2388L6.33221 31.4424L10.4561 33.025L10.15 33.8221L10.5432 33.9734L11.5957 31.2313L11.5962 31.2306ZM8.82094 31.4701L9.11482 30.7046C9.38441 30.0034 9.85884 29.7826 10.518 30.0361C11.1233 30.2687 11.293 30.7476 11.0235 31.4496L10.7345 32.2046L8.8206 31.4703L8.82094 31.4701ZM6.67447 30.646L6.96428 29.8916C7.16381 29.3704 7.56736 29.2087 8.09894 29.4123C8.64087 29.6206 8.86091 30.0951 8.65675 30.627L8.39524 31.3072L6.67392 30.6462L6.67447 30.646ZM9.18067 37.2285L9.07631 38.0753L4.72608 37.5415L4.82989 36.694L4.3783 36.6387L4.16179 38.4014L7.75765 40.6901L3.71869 42.0063L3.51025 43.7014L3.96267 43.7566L4.0662 42.9091L8.41712 43.4432L8.31283 44.2907L8.73122 44.3419L9.00971 42.0705L8.59187 42.0196L8.48807 42.8664L4.93983 42.4311L9.21621 41.0403L5.19658 38.4715L8.97051 38.9344L8.8667 39.7819L9.28461 39.8332L9.59788 37.2795L9.17998 37.2285L9.18067 37.2285ZM3.66334 48.2715L4.0214 50.5318L4.47168 50.4603L4.3382 49.6176L7.14863 49.172C8.05898 49.0277 8.80783 49.5318 8.94173 50.375C9.07169 51.1963 8.5292 51.8464 7.60691 51.9927L4.78475 52.4394L4.6494 51.585L4.1992 51.6565L4.60357 54.2088L5.05385 54.1376L4.91823 53.2825L7.97574 52.798C9.03311 52.6309 9.67084 51.631 9.47966 50.428C9.27695 49.1456 8.30565 48.4002 7.09093 48.5928L4.24668 49.0435L4.1132 48.2001L3.66292 48.2711L3.66334 48.2715ZM10.2238 56.7258L10.5716 57.5057L6.53609 59.303L6.18831 58.5224L5.8036 58.6944L6.84992 61.0444L7.2349 60.8733L6.8925 60.1037L8.67041 59.3121L9.93483 62.1508L8.15623 62.9424L7.8092 62.1625L7.42422 62.3338L8.47123 64.6838L8.85594 64.513L8.50815 63.7331L12.5437 61.9358L12.8914 62.7164L13.2762 62.5443L12.2298 60.1943L11.8448 60.3654L12.1921 61.146L10.3514 61.966L9.08763 59.1266L10.9284 58.3066L11.2708 59.0762L11.6557 58.9053L10.6087 56.5545L10.224 56.7257L10.2238 56.7258ZM14.441 68.5555C14.7322 68.3366 14.7921 67.9058 14.5731 67.6148C14.3472 67.315 13.9234 67.2638 13.6324 67.4827C13.3323 67.7086 13.2744 68.1238 13.5003 68.4234C13.7192 68.714 14.1412 68.7815 14.441 68.5555ZM76.4196 67.2373C76.1249 67.0229 75.6956 67.0911 75.4816 67.3863C75.2608 67.6897 75.336 68.1103 75.63 68.3236C75.9344 68.5447 76.3478 68.4794 76.5686 68.1756C76.7826 67.8809 76.7232 67.4578 76.4196 67.237V67.2373ZM71.2432 13.5269L71.6256 13.8147L71.8996 13.4502L70.5813 12.4578L70.3073 12.8208L70.8249 13.2114L67.5624 15.1578L68.5066 11.4639L69.0795 11.8966L69.3535 11.5322L67.59 10.2029L67.3159 10.5673L67.7613 10.9028L66.4237 16.0819L66.6421 16.2462L71.2428 13.5269H71.2432ZM62.7812 13.0644L62.0268 12.6634L64.0849 8.79357L64.8393 9.19388L65.0531 8.79219L62.7817 7.58437L62.5674 7.98606L63.3217 8.38706L61.2643 12.2576L60.5099 11.8566L60.3126 12.2286L62.5847 13.4364L62.7824 13.0644H62.7812ZM57.6474 6.00385L58.4715 6.22471L58.5896 5.78575L56.3796 5.19288L56.2618 5.63322L57.0976 5.85684L56.2549 9.00201L54.125 4.58897L52.7066 4.20868L52.5886 4.64902L53.3581 4.85538L53.501 5.19979L52.4437 9.14764L51.6189 8.92609L51.5103 9.3333L53.7202 9.92617L53.8294 9.51896L52.9936 9.29465L53.8626 6.05078L56.0504 10.6446L56.3802 10.733L57.6502 6.00247L57.6474 6.00385ZM48.3465 3.66965L46.0592 3.62962L46.0511 4.08583L46.9048 4.10032L46.8549 6.94595C46.8388 7.86804 46.2127 8.5175 45.3586 8.50232C44.5283 8.48851 43.9817 7.84112 43.9976 6.90799L44.0475 4.05063L44.9123 4.06581L44.9204 3.61029L42.337 3.56543L42.329 4.02026L43.1938 4.03544L43.1399 7.13161C43.121 8.20209 43.995 9.0027 45.2132 9.02409C46.5107 9.04618 47.4135 8.21934 47.4349 6.99012L47.4856 4.11067L48.3387 4.12517L48.3467 3.66965H48.3465ZM38.7463 6.28544L36.6115 6.70094L36.7768 7.54986L38.9116 7.13575L38.7466 6.28544H38.7463ZM34.0257 10.0966L33.1112 10.4114L31.6839 6.26681L33.2555 5.72571L33.4631 6.32893L33.8612 6.19158L33.4312 4.94304L33.033 5.07969L33.1072 5.29503L29.1456 6.65883L29.0714 6.44419L28.684 6.57739L29.114 7.82594L29.5014 7.69273L29.2938 7.08951L30.8654 6.54841L32.2927 10.693L31.3775 11.0077L31.515 11.4059L34.1632 10.4942L34.0252 10.0939L34.0257 10.0966ZM23.5758 15.712L25.8644 14.2819C27.1965 13.4496 27.6037 11.8663 26.8065 10.5922C26.0287 9.3471 24.3895 9.00132 23.0768 9.82195L20.7881 11.2513L21.0119 11.6088L21.7359 11.1568L24.077 14.9017L23.353 15.3552L23.576 15.712H23.5758ZM24.7926 14.4144L22.4873 10.7268L23.2507 10.2499C24.139 9.69495 25.3309 10.0773 25.9824 11.1202C26.6344 12.1631 26.4435 13.3826 25.5457 13.9444L24.7927 14.4144H24.7926ZM71.1662 70.2089L71.7908 69.6266L71.4802 69.2936L69.8065 70.8541L70.1171 71.1868L70.75 70.5971L72.9703 72.9783L68.0997 72.4458L67.0251 73.4479L67.3359 73.7806L67.9188 73.2374L68.2868 73.2983L71.0751 76.2875L70.4498 76.8699L70.7376 77.178L72.4106 75.6175L72.1235 75.3094L71.4906 75.8993L69.2006 73.4436L74.2548 74.0224L74.5047 73.79L71.1662 70.2093L71.1662 70.2089ZM66.8388 79.3197L66.1065 79.7589L63.8489 76.0022L64.5812 75.5628L64.3466 75.1727L62.1415 76.4979L62.376 76.888L63.1083 76.448L65.3659 80.2047L64.6343 80.6447L64.8513 81.0059L67.0564 79.6801L66.8394 79.3197L66.8388 79.3197ZM61.5595 81.3902L61.1774 81.5369L61.426 82.1853L59.6405 82.8709L58.0821 78.8112L58.8785 78.5047L58.7154 78.0801L56.3135 79.0022L56.4772 79.4268L57.2737 79.1214L58.8445 83.2135L58.0474 83.5195L58.1983 83.9126L61.9715 82.4639L61.5591 81.3906L61.5595 81.3902ZM54.6296 84.7035L54.3148 84.7531C54.0675 84.793 53.8321 84.6919 53.5963 84.4404L52.3091 83.0773C53.0296 82.8252 53.403 82.2008 53.2836 81.4478C53.1394 80.5367 52.4782 80.1461 51.3877 80.3186L48.7339 80.7392L48.8054 81.1889L49.6488 81.0554L50.3341 85.3849L49.4907 85.5181L49.5568 85.9341L52.098 85.5319L52.0317 85.1159L51.189 85.2494L50.8937 83.3831L51.4446 83.2955L52.934 84.9153C53.2828 85.2982 53.3802 85.3292 53.8747 85.251L54.6953 85.121L54.6293 84.7045L54.6296 84.7035ZM50.5037 80.9193L51.2898 80.7947C51.8749 80.7025 52.245 81.001 52.3451 81.6306C52.4427 82.2493 52.1604 82.7204 51.6204 82.8059L50.8226 82.9319L50.5039 80.9193L50.5037 80.9193ZM45.4725 85.1294L45.0519 85.1146L45.0311 85.718L43.0965 85.6506L43.1658 83.6587L44.6221 83.7102L44.6024 84.279L45.023 84.2939L45.0782 82.712L44.6572 82.7087L44.6383 83.2552L43.182 83.204L43.248 81.3039L45.1143 81.3695L45.0932 81.9613L45.5031 81.9755L45.5475 80.7008L45.1264 80.6859L45.1183 80.9138L41.546 80.7889L41.5311 81.2103L42.3842 81.24L42.2305 85.6544L41.3768 85.6245L41.3622 86.0459L45.435 86.188L45.4714 85.13L45.4725 85.1294ZM35.6087 85.13C36.6578 85.3915 37.3866 85.0572 37.5992 84.2065C37.8054 83.3783 37.3223 82.7295 36.2699 82.4321C37.076 82.6332 37.78 82.304 37.945 81.6418C38.1382 80.8688 37.6651 80.2235 36.7261 79.9881L34.0316 79.3163L33.9292 79.7256L34.7574 79.9315L33.689 84.2176L32.8608 84.0108L32.7591 84.4198L35.6089 85.13H35.6087ZM35.0323 82.4051L35.8274 82.6038C36.5569 82.7853 36.833 83.2298 36.6625 83.9152C36.5053 84.5444 36.0497 84.771 35.3208 84.5897L34.5367 84.3934L35.0319 82.4057L35.0323 82.4051ZM35.589 80.1745L36.3731 80.3699C36.9142 80.5047 37.1247 80.8853 36.987 81.4383C36.8463 82.0018 36.4019 82.2783 35.8503 82.1396L35.1394 81.8635L35.5856 80.0745L35.589 80.1745ZM30.1676 77.7969L28.1668 76.6871L27.9457 77.0856L28.6925 77.4992L27.3128 79.9887C26.8661 80.7955 26.0077 81.075 25.2609 80.6608C24.5342 80.2583 24.3554 79.4302 24.808 78.6137L26.1932 76.1146L26.9503 76.5338L27.1708 76.1353L24.9104 74.8826L24.6894 75.2808L25.4465 75.7009L23.9454 78.4092C23.4263 79.3451 23.8222 80.4625 24.8875 81.0533C26.0228 81.6823 27.2072 81.3763 27.8042 80.3003L29.2011 77.7811L29.9472 78.1949L30.1683 77.7968L30.1676 77.7969ZM20.4367 76.5544L20.1226 76.2911L19.6252 76.8839L17.3061 74.9376L22.7448 73.5572L22.9057 73.3652L19.8096 70.7674L19.956 70.5927L19.6424 70.3293L18.8225 71.3059L19.136 71.5696L19.5167 71.1159L21.697 72.9449L16.268 74.3501L16.1138 74.5325L19.6462 77.4969L20.4468 76.5997" fill="#73614F"/>
</svg>
