<svg width="100" height="22" viewBox="0 0 100 22" fill="none" xmlns="http://www.w3.org/2000/svg">
<g clip-path="url(#clip0)">
<path d="M36.7319 4.13291C36.7319 5.16608 36.46 5.95456 35.9163 6.52552C35.3725 7.09648 34.584 7.39556 33.6052 7.39556C32.6536 7.39556 31.8923 7.09648 31.3214 6.52552C30.7504 5.92737 30.4785 5.1389 30.4785 4.13291C30.4785 3.09974 30.7504 2.31127 31.2942 1.74031C31.838 1.16935 32.6264 0.897461 33.6052 0.897461C34.2306 0.897461 34.7743 1.0334 35.2365 1.2781C35.6987 1.54999 36.0794 1.90344 36.3241 2.39284C36.596 2.90942 36.7319 3.48039 36.7319 4.13291ZM32.6536 4.13291C32.6536 4.67669 32.7352 5.08452 32.8711 5.35641C33.0071 5.62829 33.2518 5.79142 33.6052 5.79142C33.9315 5.79142 34.1762 5.65548 34.3121 5.35641C34.4481 5.08452 34.5296 4.67669 34.5296 4.13291C34.5296 3.58914 34.4481 3.18131 34.3121 2.90942C34.1762 2.63754 33.9315 2.50159 33.6052 2.50159C33.279 2.50159 33.0343 2.63754 32.8983 2.90942C32.7352 3.18131 32.6536 3.58914 32.6536 4.13291Z" fill="#73614F"/>
<path d="M41.7348 7.39556C41.4085 7.39556 41.1366 7.34118 40.8919 7.23243C40.6472 7.12367 40.4025 6.93335 40.1307 6.66146H40.0219C40.0763 7.09648 40.1307 7.36837 40.1307 7.47712V10.0057H37.9556V1.00622H39.7228L40.0219 1.79469H40.1307C40.5385 1.19654 41.0823 0.897461 41.7892 0.897461C42.4961 0.897461 43.0398 1.19654 43.4205 1.7675C43.8283 2.33846 44.0186 3.12693 44.0186 4.13291C44.0186 5.1389 43.8011 5.95456 43.3933 6.52552C42.9855 7.09648 42.4417 7.39556 41.7348 7.39556ZM41.0007 2.58316C40.6744 2.58316 40.4569 2.69191 40.321 2.93661C40.185 3.15412 40.1307 3.50757 40.1035 3.94259V4.10573C40.1035 4.6495 40.185 5.03014 40.321 5.27484C40.4569 5.51954 40.7016 5.62829 41.0007 5.62829C41.2726 5.62829 41.4901 5.51954 41.5988 5.27484C41.7348 5.03014 41.7892 4.6495 41.7892 4.10573C41.7892 3.56195 41.7348 3.18131 41.5988 2.93661C41.4901 2.7191 41.2998 2.58316 41.0007 2.58316Z" fill="#73614F"/>
<path d="M48.2872 7.39556C47.2541 7.39556 46.4384 7.12367 45.8403 6.55271C45.2693 6.00893 44.9702 5.19327 44.9702 4.18729C44.9702 3.12693 45.2421 2.31127 45.7859 1.74031C46.3296 1.16935 47.0909 0.897461 48.0697 0.897461C49.0213 0.897461 49.7554 1.14216 50.272 1.63156C50.7886 2.12095 51.0333 2.82786 51.0333 3.75227V4.70388H47.1725C47.1997 5.05733 47.3084 5.32922 47.5531 5.51954C47.7978 5.70986 48.1241 5.81861 48.5319 5.81861C48.9126 5.81861 49.266 5.79143 49.5923 5.70986C49.9186 5.62829 50.2448 5.51954 50.6255 5.32922V6.87897C50.2992 7.0421 49.9457 7.17805 49.5651 7.23243C49.2117 7.36837 48.7766 7.39556 48.2872 7.39556ZM48.1513 2.36565C47.9066 2.36565 47.6891 2.44722 47.4988 2.61035C47.3356 2.77348 47.2269 3.01818 47.1997 3.37163H49.0485C49.0485 3.07256 48.967 2.82786 48.8038 2.63754C48.6407 2.44722 48.4232 2.36565 48.1513 2.36565Z" fill="#73614F"/>
<path d="M56.2264 7.28696V3.86118C56.2264 3.45335 56.172 3.12709 56.0361 2.90958C55.9273 2.69207 55.7098 2.58331 55.4651 2.58331C55.1116 2.58331 54.8398 2.71926 54.6766 3.01833C54.5135 3.31741 54.4319 3.80681 54.4319 4.51371V7.25977H52.2568V1.00637H53.8882L54.16 1.79484H54.296C54.4863 1.49577 54.731 1.27826 55.0573 1.14231C55.3835 1.00637 55.7642 0.924805 56.172 0.924805C56.8789 0.924805 57.3955 1.11513 57.8033 1.52296C58.184 1.93079 58.3743 2.50175 58.3743 3.23584V7.31415H56.2264V7.28696Z" fill="#73614F"/>
<path d="M66.9113 7.28649L66.5034 6.44364H66.449C66.15 6.7971 65.8509 7.04179 65.5518 7.17774C65.2527 7.31368 64.8449 7.36806 64.3827 7.36806C63.7846 7.36806 63.3223 7.17774 62.9961 6.82429C62.6698 6.47083 62.4795 5.98144 62.4795 5.32891C62.4795 4.64919 62.7242 4.15979 63.1864 3.83353C63.6486 3.50727 64.3283 3.31694 65.1984 3.28976L66.2315 3.26257V3.181C66.2315 2.66442 65.9868 2.39253 65.4703 2.39253C65.008 2.39253 64.4371 2.55566 63.7302 2.85474L63.1048 1.41374C63.8389 1.03309 64.7633 0.842773 65.8781 0.842773C66.6937 0.842773 67.3191 1.03309 67.7541 1.44092C68.1891 1.84876 68.4066 2.39253 68.4066 3.12662V7.23212H66.9113V7.28649ZM65.3071 5.87268C65.579 5.87268 65.7965 5.79112 65.9868 5.62798C66.1772 5.46485 66.2587 5.24734 66.2587 4.97545V4.48606L65.7693 4.51325C65.0624 4.54044 64.709 4.81232 64.709 5.30172C64.6818 5.68236 64.8721 5.87268 65.3071 5.87268Z" fill="#73614F"/>
<path d="M72.7297 7.3954C71.6966 7.3954 70.9353 7.12352 70.3915 6.55255C69.8749 6.00878 69.603 5.19312 69.603 4.15995C69.603 3.12678 69.9021 2.31112 70.4731 1.74016C71.044 1.16919 71.8597 0.870117 72.92 0.870117C73.6541 0.870117 74.3338 1.03325 74.9864 1.35951L74.361 2.96365C74.0892 2.85489 73.8445 2.74614 73.6269 2.69176C73.4094 2.61019 73.1647 2.583 72.9472 2.583C72.5938 2.583 72.3219 2.71895 72.1316 2.99083C71.9412 3.26272 71.8325 3.64336 71.8325 4.15995C71.8325 5.16593 72.2131 5.65533 72.9472 5.65533C73.5726 5.65533 74.1979 5.46501 74.7689 5.11155V6.82444C74.1979 7.20508 73.5182 7.3954 72.7297 7.3954Z" fill="#73614F"/>
<path d="M78.8474 7.3954C77.8142 7.3954 77.0529 7.12352 76.5092 6.55255C75.9926 6.00878 75.7207 5.19312 75.7207 4.15995C75.7207 3.12678 76.0198 2.31112 76.5907 1.74016C77.1617 1.16919 77.9774 0.870117 79.0377 0.870117C79.7718 0.870117 80.4515 1.03325 81.1041 1.35951L80.4787 2.96365C80.2068 2.85489 79.9621 2.74614 79.7446 2.69176C79.5271 2.61019 79.2824 2.583 79.0649 2.583C78.7115 2.583 78.4396 2.71895 78.2493 2.99083C78.0589 3.26272 77.9502 3.64336 77.9502 4.15995C77.9502 5.16593 78.3308 5.65533 79.0649 5.65533C79.6903 5.65533 80.3156 5.46501 80.8866 5.11155V6.82444C80.2884 7.20508 79.6359 7.3954 78.8474 7.3954Z" fill="#73614F"/>
<path d="M85.1276 7.39556C84.0944 7.39556 83.2787 7.12367 82.6806 6.55271C82.1096 6.00893 81.8105 5.19327 81.8105 4.18729C81.8105 3.12693 82.0824 2.31127 82.6262 1.74031C83.17 1.16935 83.9313 0.897461 84.9101 0.897461C85.8617 0.897461 86.5958 1.14216 87.1123 1.63156C87.6289 2.12095 87.8736 2.82786 87.8736 3.75227V4.70388H84.0128C84.04 5.05733 84.1488 5.32922 84.3935 5.51954C84.6382 5.70986 84.9644 5.81861 85.3723 5.81861C85.7529 5.81861 86.1064 5.79143 86.4326 5.70986C86.7589 5.62829 87.0852 5.51954 87.4658 5.32922V6.87897C87.1395 7.0421 86.7861 7.17805 86.4054 7.23243C86.052 7.36837 85.6442 7.39556 85.1276 7.39556ZM84.9916 2.36565C84.7469 2.36565 84.5294 2.44722 84.3391 2.61035C84.176 2.77348 84.0672 3.01818 84.04 3.37163H85.8888C85.8888 3.07256 85.8073 2.82786 85.6442 2.63754C85.5082 2.44722 85.2907 2.36565 84.9916 2.36565Z" fill="#73614F"/>
<path d="M93.964 5.3561C93.964 6.03581 93.7465 6.52521 93.2843 6.87866C92.822 7.23211 92.1695 7.39525 91.2995 7.39525C90.8373 7.39525 90.4294 7.36806 90.076 7.31368C89.7225 7.2593 89.3691 7.17774 89.0156 7.04179V5.30172C89.3419 5.43766 89.7225 5.5736 90.1304 5.65517C90.5382 5.76393 90.8916 5.79111 91.1907 5.79111C91.6529 5.79111 91.8976 5.68236 91.8976 5.46485C91.8976 5.3561 91.8432 5.24734 91.7073 5.16577C91.5714 5.08421 91.1907 4.92108 90.5654 4.64919C89.9944 4.40449 89.5866 4.1326 89.3691 3.83353C89.1516 3.53445 89.0156 3.15381 89.0156 2.6916C89.0156 2.12064 89.2331 1.65843 89.6953 1.33217C90.1576 1.00591 90.7829 0.842773 91.5986 0.842773C92.0064 0.842773 92.4142 0.897151 92.7677 0.978717C93.1211 1.06028 93.5018 1.19623 93.9096 1.38655L93.3114 2.77317C93.0124 2.63723 92.7133 2.52847 92.387 2.44691C92.0608 2.36534 91.8161 2.31096 91.5986 2.31096C91.2451 2.31096 91.0548 2.39253 91.0548 2.58285C91.0548 2.6916 91.1092 2.77317 91.2451 2.85474C91.381 2.9363 91.7345 3.07225 92.3055 3.31694C92.7405 3.50727 93.0667 3.6704 93.2843 3.86072C93.5018 4.02385 93.6649 4.24136 93.7736 4.48606C93.9096 4.73076 93.964 5.02983 93.964 5.3561Z" fill="#73614F"/>
<path d="M100 5.3561C100 6.03581 99.7826 6.52521 99.3204 6.87866C98.8582 7.23211 98.2056 7.39525 97.3356 7.39525C96.8734 7.39525 96.4656 7.36806 96.1121 7.31368C95.7587 7.2593 95.4052 7.17774 95.0518 7.04179V5.30172C95.378 5.43766 95.7587 5.5736 96.1665 5.65517C96.5743 5.76393 96.9278 5.79111 97.2269 5.79111C97.6891 5.79111 97.9338 5.68236 97.9338 5.46485C97.9338 5.3561 97.8794 5.24734 97.7434 5.16577C97.6075 5.08421 97.2268 4.92108 96.6015 4.64919C96.0305 4.40449 95.6227 4.1326 95.4052 3.83353C95.1877 3.53445 95.0518 3.15381 95.0518 2.6916C95.0518 2.12064 95.2693 1.65843 95.7315 1.33217C96.1937 1.00591 96.819 0.842773 97.6347 0.842773C98.0425 0.842773 98.4503 0.897151 98.8038 0.978717C99.1572 1.06028 99.5379 1.19623 99.9457 1.38655L99.3476 2.77317C99.0485 2.63723 98.7494 2.52847 98.4232 2.44691C98.0969 2.36534 97.8522 2.31096 97.6347 2.31096C97.2812 2.31096 97.0909 2.39253 97.0909 2.58285C97.0909 2.6916 97.1453 2.77317 97.2812 2.85474C97.4172 2.9363 97.7706 3.07225 98.3416 3.31694C98.7766 3.50727 99.1029 3.6704 99.3204 3.86072C99.5379 4.02385 99.701 4.24136 99.8098 4.48606C99.9457 4.73076 100 5.02983 100 5.3561Z" fill="#73614F"/>
<path d="M33.7954 15.0349C34.5839 15.0349 35.2092 15.3068 35.6442 15.8505C36.0792 16.3943 36.2968 17.1556 36.2968 18.1616C36.2968 19.1676 36.0792 19.9288 35.617 20.4726C35.182 21.0164 34.5567 21.2883 33.7682 21.2883C33.3604 21.2883 33.0069 21.2067 32.6807 21.0708C32.3544 20.9348 32.0825 20.6901 31.865 20.391H31.8106L31.6203 21.1795H30.9678V12.5879H31.8922V14.6814C31.8922 15.1436 31.865 15.5786 31.8378 15.9321H31.8922C32.3 15.3339 32.9525 15.0349 33.7954 15.0349ZM33.6595 15.7962C33.0341 15.7962 32.5719 15.9865 32.3 16.3399C32.0281 16.6934 31.8922 17.3187 31.8922 18.1616C31.8922 19.0044 32.0281 19.6298 32.3272 19.9832C32.5991 20.3639 33.0613 20.527 33.6866 20.527C34.2576 20.527 34.6654 20.3095 34.9373 19.9016C35.2092 19.4938 35.3451 18.8957 35.3451 18.1344C35.3451 17.3459 35.2092 16.7478 34.9373 16.3671C34.6654 15.9865 34.2304 15.7962 33.6595 15.7962Z" fill="#73614F"/>
<path d="M38.7709 15.1165V19.0589C38.7709 19.5483 38.8797 19.9289 39.0972 20.1736C39.3147 20.4183 39.6682 20.5271 40.1576 20.5271C40.7829 20.5271 41.2451 20.3639 41.5442 20.0105C41.8433 19.657 41.9792 19.0861 41.9792 18.2976V15.1165H42.9036V21.2068H42.1423L42.0064 20.3911H41.952C41.7617 20.6902 41.4898 20.9077 41.1635 21.0708C40.8373 21.234 40.4566 21.3155 40.0216 21.3155C39.2875 21.3155 38.7166 21.1524 38.3631 20.7989C37.9825 20.4455 37.8193 19.8745 37.8193 19.1132V15.1165H38.7709ZM38.8253 13.4852C38.8253 13.2949 38.8797 13.1589 38.9613 13.0773C39.07 12.9958 39.1788 12.9414 39.3147 12.9414C39.4507 12.9414 39.5866 12.9958 39.6682 13.0773C39.7769 13.1589 39.8313 13.2949 39.8313 13.4852C39.8313 13.6755 39.7769 13.8114 39.6682 13.893C39.5594 13.9746 39.4507 14.029 39.3147 14.029C39.1788 14.029 39.07 13.9746 38.9613 13.893C38.8797 13.8114 38.8253 13.6755 38.8253 13.4852ZM40.946 13.4852C40.946 13.2949 41.0004 13.1589 41.082 13.0773C41.1907 12.9958 41.2995 12.9414 41.4354 12.9414C41.5714 12.9414 41.6801 12.9958 41.7889 13.0773C41.8976 13.1589 41.952 13.2949 41.952 13.4852C41.952 13.6755 41.8976 13.8114 41.7889 13.893C41.6801 13.9746 41.5714 14.029 41.4354 14.029C41.2995 14.029 41.1907 13.9746 41.082 13.893C41.0004 13.8114 40.946 13.6755 40.946 13.4852Z" fill="#73614F"/>
<path d="M47.6346 15.0078C47.9065 15.0078 48.1512 15.035 48.3687 15.0622L48.2327 15.905C47.988 15.8507 47.7705 15.8235 47.5802 15.8235C47.0908 15.8235 46.6558 16.0138 46.3295 16.4216C45.9761 16.8295 45.8129 17.3189 45.8129 17.917V21.1796H44.8613V15.1166H45.6226L45.7314 16.2313H45.7857C46.0033 15.8235 46.2751 15.5244 46.6014 15.3069C46.9005 15.1166 47.2539 15.0078 47.6346 15.0078Z" fill="#73614F"/>
<path d="M54.7307 18.1619C54.7307 19.1406 54.486 19.9291 53.9695 20.4729C53.4801 21.0167 52.7732 21.3157 51.9031 21.3157C51.3594 21.3157 50.87 21.1798 50.4621 20.9351C50.0543 20.6904 49.728 20.3098 49.4833 19.8476C49.2658 19.3582 49.1299 18.8144 49.1299 18.1619C49.1299 17.1831 49.3746 16.3946 49.864 15.8508C50.3534 15.307 51.0331 15.0352 51.9303 15.0352C52.7732 15.0352 53.4529 15.307 53.9423 15.878C54.486 16.4218 54.7307 17.1831 54.7307 18.1619ZM50.1087 18.1619C50.1087 18.9503 50.2718 19.5213 50.5709 19.9291C50.87 20.337 51.3322 20.5273 51.9303 20.5273C52.5285 20.5273 52.9907 20.337 53.2897 19.9291C53.5888 19.5213 53.752 18.9231 53.752 18.1619C53.752 17.4006 53.5888 16.8024 53.2897 16.3946C52.9907 15.9868 52.5285 15.7964 51.9031 15.7964C51.305 15.7964 50.8428 15.9868 50.5437 16.3946C50.2718 16.7752 50.1087 17.3734 50.1087 18.1619Z" fill="#73614F"/>
<path d="M62.126 15.0349C62.9144 15.0349 63.5398 15.3068 63.9748 15.8505C64.4098 16.3943 64.6273 17.1556 64.6273 18.1616C64.6273 19.1676 64.4098 19.9288 63.9476 20.4726C63.5126 21.0164 62.8872 21.2883 62.0988 21.2883C61.6909 21.2883 61.3375 21.2067 61.0112 21.0708C60.685 20.9348 60.4131 20.6901 60.1956 20.391H60.1412L59.9509 21.1795H59.2983V12.5879H60.2228V14.6814C60.2228 15.1436 60.1956 15.5786 60.1684 15.9321H60.2228C60.6306 15.3339 61.2831 15.0349 62.126 15.0349ZM61.99 15.7962C61.3647 15.7962 60.9025 15.9865 60.6306 16.3399C60.3587 16.6934 60.2228 17.3187 60.2228 18.1616C60.2228 19.0044 60.3587 19.6298 60.6578 19.9832C60.9297 20.3639 61.3919 20.527 62.0172 20.527C62.5882 20.527 62.996 20.3095 63.2679 19.9016C63.5398 19.4938 63.6757 18.8957 63.6757 18.1344C63.6757 17.3459 63.5398 16.7478 63.2679 16.3671C62.996 15.9865 62.561 15.7962 61.99 15.7962Z" fill="#73614F"/>
<path d="M68.8145 21.3156C67.9172 21.3156 67.2103 21.0437 66.6937 20.4999C66.1772 19.9562 65.9053 19.1949 65.9053 18.2161C65.9053 17.2373 66.15 16.4488 66.6394 15.8779C67.1288 15.3069 67.7813 15.0078 68.5698 15.0078C69.3311 15.0078 69.9292 15.2525 70.3642 15.7691C70.7992 16.2585 71.0168 16.9382 71.0168 17.7539V18.3248H66.8297C66.8569 19.0317 67.02 19.5755 67.3735 19.9562C67.7269 20.3368 68.1891 20.4999 68.8145 20.4999C69.467 20.4999 70.1195 20.364 70.7449 20.0921V20.9078C70.4186 21.0437 70.1195 21.1525 69.8204 21.2068C69.5757 21.2884 69.2223 21.3156 68.8145 21.3156ZM68.5698 15.7963C68.0804 15.7963 67.6997 15.9594 67.4007 16.2857C67.1016 16.6119 66.9384 17.047 66.8841 17.5907H70.0651C70.0651 17.0198 69.9292 16.5576 69.6845 16.2585C69.4126 15.9322 69.032 15.7963 68.5698 15.7963Z" fill="#73614F"/>
<path d="M75.3672 15.0078C75.639 15.0078 75.8837 15.035 76.1012 15.0622L75.9653 15.905C75.7206 15.8507 75.5031 15.8235 75.3128 15.8235C74.8234 15.8235 74.3884 16.0138 74.0621 16.4216C73.7086 16.8295 73.5455 17.3189 73.5455 17.917V21.1796H72.6211V15.1166H73.3824L73.4911 16.2313H73.5455C73.763 15.8235 74.0349 15.5244 74.3612 15.3069C74.6602 15.1166 74.9865 15.0078 75.3672 15.0078Z" fill="#73614F"/>
<path d="M78.1676 21.2067H77.2432V12.5879H78.1676V21.2067Z" fill="#73614F"/>
<path d="M80.0435 13.4849C80.0435 13.2674 80.0978 13.1314 80.2066 13.0227C80.3153 12.9139 80.4513 12.8867 80.5872 12.8867C80.7232 12.8867 80.8591 12.9411 80.9679 13.0499C81.0766 13.1586 81.131 13.2945 81.131 13.5121C81.131 13.7296 81.0766 13.8655 80.9679 13.9743C80.8591 14.083 80.7232 14.1374 80.5872 14.1374C80.4241 14.1374 80.3153 14.083 80.2066 13.9743C80.0706 13.8383 80.0435 13.6752 80.0435 13.4849ZM81.0223 21.2065H80.0978V15.1162H81.0223V21.2065Z" fill="#73614F"/>
<path d="M87.1395 21.2068V17.2645C87.1395 16.7751 87.0308 16.3944 86.8133 16.1497C86.5957 15.905 86.2423 15.7963 85.7529 15.7963C85.1276 15.7963 84.6653 15.9594 84.3663 16.3129C84.0672 16.6663 83.9313 17.2101 83.9313 18.0258V21.2068H83.0068V15.1166H83.7409L83.8769 15.9594H83.9313C84.1216 15.6603 84.3935 15.4156 84.7197 15.2525C85.046 15.0894 85.4266 15.0078 85.8616 15.0078C86.5957 15.0078 87.1395 15.1709 87.5202 15.5244C87.9008 15.8778 88.0639 16.4488 88.0639 17.2101V21.2068H87.1395Z" fill="#73614F"/>
<path d="M11.2832 -0.000136354C11.2832 -0.000136354 22.2131 -0.353589 22.5665 -0.000136354C22.7025 0.326128 22.3762 10.9025 22.5665 10.9025C22.7568 10.9025 11.2832 10.9025 11.2832 10.9025V-0.000136354Z" fill="#555555"/>
<path d="M11.2832 21.7777C11.2832 21.7777 22.2131 22.1311 22.5665 21.7777C22.7025 21.4514 22.3762 10.875 22.5665 10.875C22.7568 10.875 11.2832 10.875 11.2832 10.875V21.7777Z" fill="#73614F"/>
<path d="M11.2833 -0.000136354C11.2833 -0.000136354 0.353469 -0.353589 1.56885e-05 -0.000136354C-0.135928 0.326128 0.190337 10.9025 1.56885e-05 10.9025C-0.190305 10.9025 11.2833 10.9025 11.2833 10.9025V-0.000136354Z" fill="#999999"/>
<path d="M11.2833 21.7777C11.2833 21.7777 0.353469 22.1311 1.56885e-05 21.7777C-0.135928 21.4514 0.190337 10.875 1.56885e-05 10.875C-0.190305 10.875 11.2833 10.875 11.2833 10.875V21.7777Z" fill="#A3A599"/>
</g>
<defs>
<clipPath id="clip0">
<rect width="100" height="21.9413" fill="white"/>
</clipPath>
</defs>
</svg>
