<svg width="100" height="40" viewBox="0 0 100 40" fill="none" xmlns="http://www.w3.org/2000/svg">
<g clip-path="url(#clip0)">
<path d="M70.8312 20.8975L55.7632 39.6979L99.9999 20.8975H70.8312Z" fill="#73614F"/>
<path d="M43.3218 20.8975L54.7958 38.3157L68.758 20.8975H43.3218Z" fill="#73614F"/>
<path d="M72.0757 19.3775H98.203L82.9965 5.83008L72.0757 19.3775Z" fill="#73614F"/>
<path d="M0.609375 3.87039V0.134766H1.37614V3.90365C1.37614 4.93763 2.04363 5.50479 3.01054 5.50479C3.97798 5.50479 4.64494 4.9709 4.64494 3.90365V0.134766H5.41224V3.87039C5.41224 5.33791 4.41153 6.23828 3.01054 6.23828C1.61008 6.23828 0.609375 5.37118 0.609375 3.87039Z" fill="#73614F"/>
<path d="M10.0485 3.53664H9.38156V6.17175H8.61426V0.134766H10.4155C11.5826 0.134766 12.3499 0.801726 12.3499 1.8357C12.3499 2.7028 11.816 3.30323 10.9156 3.4701L13.0168 6.17175H12.0832L10.0485 3.53664ZM10.349 2.83641C11.149 2.83641 11.5493 2.46939 11.5493 1.8357C11.5493 1.20201 11.149 0.834993 10.349 0.834993H9.38156V2.83641H10.349Z" fill="#73614F"/>
<path d="M15.6519 0.134766H17.6533C18.8204 0.134766 19.4208 0.868261 19.4208 1.70263C19.4208 2.30252 19.1874 2.7028 18.7871 2.97002C19.3875 3.20343 19.8211 3.67024 19.8211 4.47081C19.8211 5.57132 18.9873 6.17175 17.7199 6.17175H15.6187V0.134766H15.6519ZM17.6533 2.73661C18.287 2.73661 18.6868 2.33632 18.6868 1.80243C18.6868 1.30235 18.3203 0.868261 17.6533 0.868261H16.4192V2.76987H17.6533V2.73661ZM17.8535 5.47152C18.6535 5.47152 19.0538 5.03797 19.0538 4.43754C19.0538 3.83712 18.6535 3.40357 17.8535 3.40357H16.4192V5.47152H17.8535Z" fill="#73614F"/>
<path d="M24.624 0.134766H26.9586V6.17175H26.1919V4.60442H23.2901L22.5228 6.17175H21.689L24.624 0.134766ZM23.6233 3.87039H26.1919V0.868261H25.0576L23.6233 3.87039Z" fill="#73614F"/>
<path d="M30.2271 0.0683594V6.17188H30.9943V1.7693L34.5298 4.97103V6.17188H35.2966V0.134894H34.5298V3.97032L30.2271 0.0683594Z" fill="#73614F"/>
<path d="M0.108887 11.6752C0.108887 9.9077 1.47661 8.57324 3.21081 8.57324C3.97811 8.57324 4.64507 8.80719 5.17896 9.27401L4.71161 9.87443C4.31132 9.54068 3.81124 9.30727 3.21081 9.30727C1.87689 9.30727 0.909453 10.3412 0.909453 11.6419C0.909453 12.9431 1.87689 13.9765 3.21081 13.9765C3.81124 13.9765 4.31132 13.7431 4.71161 13.4099L5.17896 14.0103C4.64507 14.4772 3.97811 14.7106 3.21081 14.7106C1.44334 14.7438 0.108887 13.4099 0.108887 11.6752Z" fill="#73614F"/>
<path d="M7.48047 11.6752C7.48047 9.9077 8.84766 8.57324 10.5819 8.57324C12.3166 8.57324 13.6838 9.9077 13.6838 11.6752C13.6838 13.4432 12.3166 14.7771 10.5819 14.7771C8.84766 14.7771 7.48047 13.4099 7.48047 11.6752ZM12.8505 11.6752C12.8505 10.3412 11.883 9.34054 10.5491 9.34054C9.21467 9.34054 8.24723 10.3745 8.24723 11.6752C8.24723 12.9764 9.21467 14.0103 10.5491 14.0103C11.883 14.0103 12.8505 12.9764 12.8505 11.6752Z" fill="#73614F"/>
<path d="M16.4854 8.57324L19.4204 11.8088L22.3887 8.57324V14.6773H21.5882V10.4749L19.4204 12.9093L17.2527 10.4749V14.6773H16.4854V8.57324Z" fill="#73614F"/>
<path d="M25.6245 8.64062H27.3254C28.5928 8.64062 29.4267 9.34085 29.4267 10.4752C29.4267 11.6089 28.5928 12.3092 27.3254 12.3092H26.3918V14.6443H25.6245V8.64062ZM27.3254 11.6089C28.1926 11.6089 28.6594 11.2087 28.6594 10.4752C28.6594 9.7744 28.1926 9.34085 27.3254 9.34085H26.4251V11.6089H27.3254Z" fill="#73614F"/>
<path d="M32.0952 8.64062H32.8958V13.9436H35.4305V14.6776H32.0952V8.64062Z" fill="#73614F"/>
<path d="M38.0317 8.64062H41.5339V9.40792H38.8323V11.2087H41.0339V11.976H38.8323V13.9436H41.5339V14.6776H38.0317V8.64062Z" fill="#73614F"/>
<path d="M46.2702 11.8424L44.7362 14.6776H43.9023L45.8034 11.1421L44.0021 8.64062H44.9031L46.8707 11.3755L48.3049 8.64062H49.1388L47.3375 12.0425L49.2386 14.6776H48.3049L46.2702 11.8424Z" fill="#73614F"/>
<path d="M51.9404 14.6776V8.64062H52.7077V14.6776H51.9404Z" fill="#73614F"/>
<path d="M57.1102 9.40792H55.376V8.64062H59.5784V9.40792H57.8775V14.6776H57.1102V9.40792Z" fill="#73614F"/>
<path d="M65.9493 8.64062L64.2478 11.3755L62.5469 8.64062H61.6465L63.848 12.1096V14.6776H64.6148V12.1096L66.8496 8.64062H65.9493Z" fill="#73614F"/>
<path d="M0.609375 17.1455V23.1825H3.91144V22.4485H1.37614V17.1455H0.609375Z" fill="#73614F"/>
<path d="M8.78118 17.1455L5.87939 23.1825H6.71323L7.48053 21.6146H10.3823V23.1825H11.1491V17.1455H8.78118ZM9.21473 17.9123H10.349V20.9144H7.78047L9.21473 17.9123Z" fill="#73614F"/>
<path d="M14.3843 17.1455H16.3852C17.5528 17.1455 18.1532 17.879 18.1532 18.7128C18.1532 19.3133 17.9198 19.7135 17.5195 19.9802C18.12 20.2136 18.5535 20.681 18.5535 21.4816C18.5535 22.5821 17.7197 23.1825 16.4523 23.1825H14.3511V17.1455H14.3843ZM16.3852 19.7468C17.0189 19.7468 17.4192 19.3465 17.4192 18.8132C17.4192 18.3126 17.0527 17.879 16.3852 17.879H15.1516V19.7801H16.3852V19.7468ZM16.5854 22.4817C17.3859 22.4817 17.7862 22.0482 17.7862 21.4477C17.7862 20.8479 17.3859 20.4138 16.5854 20.4138H15.1516V22.4817H16.5854Z" fill="#73614F"/>
</g>
<defs>
<clipPath id="clip0">
<rect width="100" height="39.6978" fill="white"/>
</clipPath>
</defs>
</svg>
